<?xml version="1.0" encoding="UTF-8" standalone="no"?>
<svg xmlns="http://www.w3.org/2000/svg" xmlns:xlink="http://www.w3.org/1999/xlink" contentStyleType="text/css" height="436px" preserveAspectRatio="none" style="width:589px;height:436px;background:#FFFFFF;" version="1.1" viewBox="0 0 589 436" width="589px" zoomAndPan="magnify"><defs/><g><!--MD5=[a6de9d9915f9412a05a4044d316e2ca5]
cluster ML--><g id="cluster_ML"><path d="M291.5,219 L464.5,219 A3.75,3.75 0 0 1 467,221.5 L474,241.2969 L579.5,241.2969 A2.5,2.5 0 0 1 582,243.7969 L582,426.5 A2.5,2.5 0 0 1 579.5,429 L291.5,429 A2.5,2.5 0 0 1 289,426.5 L289,221.5 A2.5,2.5 0 0 1 291.5,219 " fill="none" style="stroke:#000000;stroke-width:1.5;"/><line style="stroke:#000000;stroke-width:1.5;" x1="289" x2="474" y1="241.2969" y2="241.2969"/><text fill="#000000" font-family="sans-serif" font-size="14" font-weight="bold" lengthAdjust="spacing" textLength="172" x="293" y="233.9951">Underlying ML library</text></g><!--MD5=[e140ffe9d520e7041a6e410e66d94b56]
cluster AI--><g id="cluster_AI"><path d="M8.5,219 L252.5,219 A3.75,3.75 0 0 1 255,221.5 L262,241.2969 L262.5,241.2969 A2.5,2.5 0 0 1 265,243.7969 L265,315.5 A2.5,2.5 0 0 1 262.5,318 L8.5,318 A2.5,2.5 0 0 1 6,315.5 L6,221.5 A2.5,2.5 0 0 1 8.5,219 " fill="none" style="stroke:#000000;stroke-width:1.5;"/><line style="stroke:#000000;stroke-width:1.5;" x1="6" x2="262" y1="241.2969" y2="241.2969"/><text fill="#000000" font-family="sans-serif" font-size="14" font-weight="bold" lengthAdjust="spacing" textLength="243" x="10" y="233.9951">Underlying Symbolic AI library</text></g><!--MD5=[f8b49f9524512fb09b13408ecf7ffd0b]
cluster Psyke--><g id="cluster_Psyke"><path d="M229.5,6 L276.5,6 A3.75,3.75 0 0 1 279,8.5 L286,28.2969 L492.5,28.2969 A2.5,2.5 0 0 1 495,30.7969 L495,167.5 A2.5,2.5 0 0 1 492.5,170 L229.5,170 A2.5,2.5 0 0 1 227,167.5 L227,8.5 A2.5,2.5 0 0 1 229.5,6 " fill="none" style="stroke:#000000;stroke-width:1.5;"/><line style="stroke:#000000;stroke-width:1.5;" x1="227" x2="286" y1="28.2969" y2="28.2969"/><text fill="#000000" font-family="sans-serif" font-size="14" font-weight="bold" lengthAdjust="spacing" textLength="46" x="231" y="20.9951">Psyke</text></g><!--MD5=[4b14b1ad0a11b0e65e5cf7d2c67307f1]
class Predictor--><g id="elem_Predictor"><rect codeLine="2" fill="#F1F1F1" height="48" id="Predictor" rx="2.5" ry="2.5" style="stroke:#181818;stroke-width:0.5;" width="108" x="452" y="254"/><ellipse cx="467" cy="270" fill="#B4A7E5" rx="11" ry="11" style="stroke:#181818;stroke-width:1.0;"/><path d="M467.9531,266.7813 L469.6719,266.7813 C470.0625,266.7813 470.25,266.75 470.375,266.6719 C470.6406,266.5156 470.7813,266.2344 470.7813,265.9375 C470.7813,265.6719 470.6719,265.4063 470.4375,265.2344 C470.2656,265.125 470.125,265.0938 469.6719,265.0938 L464.5313,265.0938 C464.0938,265.0938 463.9688,265.1094 463.8125,265.2031 C463.5625,265.3594 463.4063,265.6563 463.4063,265.9375 C463.4063,266.2188 463.5469,266.4688 463.7656,266.6406 C463.9219,266.75 464.1094,266.7813 464.5313,266.7813 L466.25,266.7813 L466.25,273.2969 L464.5313,273.2969 C464.0938,273.2969 463.9688,273.3125 463.8125,273.4219 C463.5625,273.5781 463.4063,273.8594 463.4063,274.1563 C463.4063,274.4063 463.5469,274.6719 463.7656,274.8281 C463.9219,274.9531 464.125,275 464.5313,275 L469.6719,275 C470.4219,275 470.7813,274.7188 470.7813,274.1563 C470.7813,273.875 470.6719,273.625 470.4375,273.4531 C470.2656,273.3281 470.125,273.2969 469.6719,273.2969 L467.9531,273.2969 L467.9531,266.7813 Z " fill="#000000"/><text fill="#000000" font-family="sans-serif" font-size="14" font-style="italic" lengthAdjust="spacing" textLength="64" x="481" y="274.8467">Predictor</text><rect fill="#FFFFFF" height="15.9688" style="stroke:#181818;stroke-width:1.0;stroke-dasharray:2.0,2.0;" width="10" x="553" y="251"/><text fill="#000000" font-family="sans-serif" font-size="12" font-style="italic" lengthAdjust="spacing" textLength="8" x="554" y="263.1387">R</text><line style="stroke:#181818;stroke-width:0.5;" x1="453" x2="559" y1="286" y2="286"/><line style="stroke:#181818;stroke-width:0.5;" x1="453" x2="559" y1="294" y2="294"/></g><!--MD5=[1182380c4c765c1b1c19ec976452f089]
class DataFrame--><g id="elem_DataFrame"><rect codeLine="3" fill="#F1F1F1" height="48" id="DataFrame" rx="2.5" ry="2.5" style="stroke:#181818;stroke-width:0.5;" width="112" x="305" y="254"/><ellipse cx="320" cy="270" fill="#B4A7E5" rx="11" ry="11" style="stroke:#181818;stroke-width:1.0;"/><path d="M320.9531,266.7813 L322.6719,266.7813 C323.0625,266.7813 323.25,266.75 323.375,266.6719 C323.6406,266.5156 323.7813,266.2344 323.7813,265.9375 C323.7813,265.6719 323.6719,265.4063 323.4375,265.2344 C323.2656,265.125 323.125,265.0938 322.6719,265.0938 L317.5313,265.0938 C317.0938,265.0938 316.9688,265.1094 316.8125,265.2031 C316.5625,265.3594 316.4063,265.6563 316.4063,265.9375 C316.4063,266.2188 316.5469,266.4688 316.7656,266.6406 C316.9219,266.75 317.1094,266.7813 317.5313,266.7813 L319.25,266.7813 L319.25,273.2969 L317.5313,273.2969 C317.0938,273.2969 316.9688,273.3125 316.8125,273.4219 C316.5625,273.5781 316.4063,273.8594 316.4063,274.1563 C316.4063,274.4063 316.5469,274.6719 316.7656,274.8281 C316.9219,274.9531 317.125,275 317.5313,275 L322.6719,275 C323.4219,275 323.7813,274.7188 323.7813,274.1563 C323.7813,273.875 323.6719,273.625 323.4375,273.4531 C323.2656,273.3281 323.125,273.2969 322.6719,273.2969 L320.9531,273.2969 L320.9531,266.7813 Z " fill="#000000"/><text fill="#000000" font-family="sans-serif" font-size="14" font-style="italic" lengthAdjust="spacing" textLength="80" x="334" y="274.8467">DataFrame</text><line style="stroke:#181818;stroke-width:0.5;" x1="306" x2="416" y1="286" y2="286"/><line style="stroke:#181818;stroke-width:0.5;" x1="306" x2="416" y1="294" y2="294"/></g><!--MD5=[e5192d39c070dac6a79b288c93719d10]
class Classifier--><g id="elem_Classifier"><rect codeLine="5" fill="#F1F1F1" height="48" id="Classifier" rx="2.5" ry="2.5" style="stroke:#181818;stroke-width:0.5;" width="109" x="305.5" y="365"/><ellipse cx="320.5" cy="381" fill="#B4A7E5" rx="11" ry="11" style="stroke:#181818;stroke-width:1.0;"/><path d="M321.4531,377.7813 L323.1719,377.7813 C323.5625,377.7813 323.75,377.75 323.875,377.6719 C324.1406,377.5156 324.2813,377.2344 324.2813,376.9375 C324.2813,376.6719 324.1719,376.4063 323.9375,376.2344 C323.7656,376.125 323.625,376.0938 323.1719,376.0938 L318.0313,376.0938 C317.5938,376.0938 317.4688,376.1094 317.3125,376.2031 C317.0625,376.3594 316.9063,376.6563 316.9063,376.9375 C316.9063,377.2188 317.0469,377.4688 317.2656,377.6406 C317.4219,377.75 317.6094,377.7813 318.0313,377.7813 L319.75,377.7813 L319.75,384.2969 L318.0313,384.2969 C317.5938,384.2969 317.4688,384.3125 317.3125,384.4219 C317.0625,384.5781 316.9063,384.8594 316.9063,385.1563 C316.9063,385.4063 317.0469,385.6719 317.2656,385.8281 C317.4219,385.9531 317.625,386 318.0313,386 L323.1719,386 C323.9219,386 324.2813,385.7188 324.2813,385.1563 C324.2813,384.875 324.1719,384.625 323.9375,384.4531 C323.7656,384.3281 323.625,384.2969 323.1719,384.2969 L321.4531,384.2969 L321.4531,377.7813 Z " fill="#000000"/><text fill="#000000" font-family="sans-serif" font-size="14" font-style="italic" lengthAdjust="spacing" textLength="65" x="334.5" y="385.8467">Classifier</text><rect fill="#FFFFFF" height="15.9688" style="stroke:#181818;stroke-width:1.0;stroke-dasharray:2.0,2.0;" width="10" x="407.5" y="362"/><text fill="#000000" font-family="sans-serif" font-size="12" font-style="italic" lengthAdjust="spacing" textLength="8" x="408.5" y="374.1387">R</text><line style="stroke:#181818;stroke-width:0.5;" x1="306.5" x2="413.5" y1="397" y2="397"/><line style="stroke:#181818;stroke-width:0.5;" x1="306.5" x2="413.5" y1="405" y2="405"/></g><!--MD5=[a1003969a41c231021ce83512ea337cd]
class Regressor--><g id="elem_Regressor"><rect codeLine="6" fill="#F1F1F1" height="48" id="Regressor" rx="2.5" ry="2.5" style="stroke:#181818;stroke-width:0.5;" width="116" x="450" y="365"/><ellipse cx="465" cy="381" fill="#B4A7E5" rx="11" ry="11" style="stroke:#181818;stroke-width:1.0;"/><path d="M465.9531,377.7813 L467.6719,377.7813 C468.0625,377.7813 468.25,377.75 468.375,377.6719 C468.6406,377.5156 468.7813,377.2344 468.7813,376.9375 C468.7813,376.6719 468.6719,376.4063 468.4375,376.2344 C468.2656,376.125 468.125,376.0938 467.6719,376.0938 L462.5313,376.0938 C462.0938,376.0938 461.9688,376.1094 461.8125,376.2031 C461.5625,376.3594 461.4063,376.6563 461.4063,376.9375 C461.4063,377.2188 461.5469,377.4688 461.7656,377.6406 C461.9219,377.75 462.1094,377.7813 462.5313,377.7813 L464.25,377.7813 L464.25,384.2969 L462.5313,384.2969 C462.0938,384.2969 461.9688,384.3125 461.8125,384.4219 C461.5625,384.5781 461.4063,384.8594 461.4063,385.1563 C461.4063,385.4063 461.5469,385.6719 461.7656,385.8281 C461.9219,385.9531 462.125,386 462.5313,386 L467.6719,386 C468.4219,386 468.7813,385.7188 468.7813,385.1563 C468.7813,384.875 468.6719,384.625 468.4375,384.4531 C468.2656,384.3281 468.125,384.2969 467.6719,384.2969 L465.9531,384.2969 L465.9531,377.7813 Z " fill="#000000"/><text fill="#000000" font-family="sans-serif" font-size="14" font-style="italic" lengthAdjust="spacing" textLength="72" x="479" y="385.8467">Regressor</text><rect fill="#FFFFFF" height="15.9688" style="stroke:#181818;stroke-width:1.0;stroke-dasharray:2.0,2.0;" width="10" x="559" y="362"/><text fill="#000000" font-family="sans-serif" font-size="12" font-style="italic" lengthAdjust="spacing" textLength="8" x="560" y="374.1387">R</text><line style="stroke:#181818;stroke-width:0.5;" x1="451" x2="565" y1="397" y2="397"/><line style="stroke:#181818;stroke-width:0.5;" x1="451" x2="565" y1="405" y2="405"/></g><!--MD5=[4cf87534c235239d37db4adfd136fff4]
class Rule--><g id="elem_Rule"><rect codeLine="13" fill="#F1F1F1" height="48" id="Rule" rx="2.5" ry="2.5" style="stroke:#181818;stroke-width:0.5;" width="64" x="185" y="254"/><ellipse cx="200" cy="270" fill="#B4A7E5" rx="11" ry="11" style="stroke:#181818;stroke-width:1.0;"/><path d="M200.9531,266.7813 L202.6719,266.7813 C203.0625,266.7813 203.25,266.75 203.375,266.6719 C203.6406,266.5156 203.7813,266.2344 203.7813,265.9375 C203.7813,265.6719 203.6719,265.4063 203.4375,265.2344 C203.2656,265.125 203.125,265.0938 202.6719,265.0938 L197.5313,265.0938 C197.0938,265.0938 196.9688,265.1094 196.8125,265.2031 C196.5625,265.3594 196.4063,265.6563 196.4063,265.9375 C196.4063,266.2188 196.5469,266.4688 196.7656,266.6406 C196.9219,266.75 197.1094,266.7813 197.5313,266.7813 L199.25,266.7813 L199.25,273.2969 L197.5313,273.2969 C197.0938,273.2969 196.9688,273.3125 196.8125,273.4219 C196.5625,273.5781 196.4063,273.8594 196.4063,274.1563 C196.4063,274.4063 196.5469,274.6719 196.7656,274.8281 C196.9219,274.9531 197.125,275 197.5313,275 L202.6719,275 C203.4219,275 203.7813,274.7188 203.7813,274.1563 C203.7813,273.875 203.6719,273.625 203.4375,273.4531 C203.2656,273.3281 203.125,273.2969 202.6719,273.2969 L200.9531,273.2969 L200.9531,266.7813 Z " fill="#000000"/><text fill="#000000" font-family="sans-serif" font-size="14" font-style="italic" lengthAdjust="spacing" textLength="32" x="214" y="274.8467">Rule</text><line style="stroke:#181818;stroke-width:0.5;" x1="186" x2="248" y1="286" y2="286"/><line style="stroke:#181818;stroke-width:0.5;" x1="186" x2="248" y1="294" y2="294"/></g><!--MD5=[edea06a7d58d16627e96798795365c36]
class Theory--><g id="elem_Theory"><rect codeLine="14" fill="#F1F1F1" height="48" id="Theory" rx="2.5" ry="2.5" style="stroke:#181818;stroke-width:0.5;" width="82" x="68" y="254"/><ellipse cx="83" cy="270" fill="#B4A7E5" rx="11" ry="11" style="stroke:#181818;stroke-width:1.0;"/><path d="M83.9531,266.7813 L85.6719,266.7813 C86.0625,266.7813 86.25,266.75 86.375,266.6719 C86.6406,266.5156 86.7813,266.2344 86.7813,265.9375 C86.7813,265.6719 86.6719,265.4063 86.4375,265.2344 C86.2656,265.125 86.125,265.0938 85.6719,265.0938 L80.5313,265.0938 C80.0938,265.0938 79.9688,265.1094 79.8125,265.2031 C79.5625,265.3594 79.4063,265.6563 79.4063,265.9375 C79.4063,266.2188 79.5469,266.4688 79.7656,266.6406 C79.9219,266.75 80.1094,266.7813 80.5313,266.7813 L82.25,266.7813 L82.25,273.2969 L80.5313,273.2969 C80.0938,273.2969 79.9688,273.3125 79.8125,273.4219 C79.5625,273.5781 79.4063,273.8594 79.4063,274.1563 C79.4063,274.4063 79.5469,274.6719 79.7656,274.8281 C79.9219,274.9531 80.125,275 80.5313,275 L85.6719,275 C86.4219,275 86.7813,274.7188 86.7813,274.1563 C86.7813,273.875 86.6719,273.625 86.4375,273.4531 C86.2656,273.3281 86.125,273.2969 85.6719,273.2969 L83.9531,273.2969 L83.9531,266.7813 Z " fill="#000000"/><text fill="#000000" font-family="sans-serif" font-size="14" font-style="italic" lengthAdjust="spacing" textLength="50" x="97" y="274.8467">Theory</text><line style="stroke:#181818;stroke-width:0.5;" x1="69" x2="149" y1="286" y2="286"/><line style="stroke:#181818;stroke-width:0.5;" x1="69" x2="149" y1="294" y2="294"/></g><!--MD5=[20080be7d9e2470b3df5c67a700ed6c2]
class Extractor--><g id="elem_Extractor"><rect codeLine="20" fill="#F1F1F1" height="113.1875" id="Extractor" rx="2.5" ry="2.5" style="stroke:#181818;stroke-width:0.5;" width="235" x="243.5" y="41"/><ellipse cx="266.6" cy="57" fill="#B4A7E5" rx="11" ry="11" style="stroke:#181818;stroke-width:1.0;"/><path d="M267.5531,53.7813 L269.2719,53.7813 C269.6625,53.7813 269.85,53.75 269.975,53.6719 C270.2406,53.5156 270.3813,53.2344 270.3813,52.9375 C270.3813,52.6719 270.2719,52.4063 270.0375,52.2344 C269.8656,52.125 269.725,52.0938 269.2719,52.0938 L264.1313,52.0938 C263.6938,52.0938 263.5688,52.1094 263.4125,52.2031 C263.1625,52.3594 263.0063,52.6563 263.0063,52.9375 C263.0063,53.2188 263.1469,53.4688 263.3656,53.6406 C263.5219,53.75 263.7094,53.7813 264.1313,53.7813 L265.85,53.7813 L265.85,60.2969 L264.1313,60.2969 C263.6938,60.2969 263.5688,60.3125 263.4125,60.4219 C263.1625,60.5781 263.0063,60.8594 263.0063,61.1563 C263.0063,61.4063 263.1469,61.6719 263.3656,61.8281 C263.5219,61.9531 263.725,62 264.1313,62 L269.2719,62 C270.0219,62 270.3813,61.7188 270.3813,61.1563 C270.3813,60.875 270.2719,60.625 270.0375,60.4531 C269.8656,60.3281 269.725,60.2969 269.2719,60.2969 L267.5531,60.2969 L267.5531,53.7813 Z " fill="#000000"/><text fill="#000000" font-family="sans-serif" font-size="14" font-style="italic" lengthAdjust="spacing" textLength="65" x="282.4" y="61.8467">Extractor</text><rect fill="#FFFFFF" height="15.9688" style="stroke:#181818;stroke-width:1.0;stroke-dasharray:2.0,2.0;" width="118" x="363.5" y="38"/><text fill="#000000" font-family="sans-serif" font-size="12" font-style="italic" lengthAdjust="spacing" textLength="116" x="364.5" y="50.1387">R, P : Predictor&lt;T&gt;</text><line style="stroke:#181818;stroke-width:0.5;" x1="244.5" x2="477.5" y1="73" y2="73"/><ellipse cx="254.5" cy="86.6484" fill="none" rx="3" ry="3" style="stroke:#038048;stroke-width:1.0;"/><text fill="#000000" font-family="sans-serif" font-size="14" lengthAdjust="spacing" textLength="86" x="263.5" y="89.9951">predictor: P</text><ellipse cx="254.5" cy="102.9453" fill="none" rx="3" ry="3" style="stroke:#038048;stroke-width:1.0;"/><text fill="#000000" font-family="sans-serif" font-size="14" lengthAdjust="spacing" textLength="209" x="263.5" y="106.292">discretization: Discretization</text><line style="stroke:#181818;stroke-width:0.5;" x1="244.5" x2="477.5" y1="113.5938" y2="113.5938"/><ellipse cx="254.5" cy="127.2422" fill="#84BE84" rx="3" ry="3" style="stroke:#038048;stroke-width:1.0;"/><text fill="#000000" font-family="sans-serif" font-size="14" lengthAdjust="spacing" textLength="201" x="263.5" y="130.5889">extract(DataFrame): Theory</text><ellipse cx="254.5" cy="143.5391" fill="#84BE84" rx="3" ry="3" style="stroke:#038048;stroke-width:1.0;"/><text fill="#000000" font-family="sans-serif" font-size="14" lengthAdjust="spacing" textLength="161" x="263.5" y="146.8857">predict(DataFrame): R</text></g><!--MD5=[d9b11c3c609a9aefb59a80877f08d669]
reverse link Predictor to Classifier--><g id="link_Predictor_Classifier"><path codeLine="8" d="M458.89,314.171 C436.618,330.799 410.653,350.1839 390.918,364.9172 " fill="none" id="Predictor-backto-Classifier" style="stroke:#181818;stroke-width:1.0;"/><polygon fill="none" points="454.823,308.472,475.037,302.116,463.199,319.69,454.823,308.472" style="stroke:#181818;stroke-width:1.0;"/></g><!--MD5=[784e30f151bec541b541ac181bf67a73]
reverse link Predictor to Regressor--><g id="link_Predictor_Regressor"><path codeLine="9" d="M506.792,322.171 C507.06,336.766 507.349,352.495 507.576,364.9172 " fill="none" id="Predictor-backto-Regressor" style="stroke:#181818;stroke-width:1.0;"/><polygon fill="none" points="499.792,322.241,506.424,302.116,513.79,321.984,499.792,322.241" style="stroke:#181818;stroke-width:1.0;"/></g><!--MD5=[268e2002bbd18903f9cc9e57355a1e1b]
reverse link Theory to Rule--><g id="link_Theory_Rule"><path codeLine="16" d="M163.601,278 C170.725,278 177.849,278 184.974,278 " fill="none" id="Theory-backto-Rule" style="stroke:#181818;stroke-width:1.0;"/><polygon fill="#181818" points="150.344,278,156.344,282,162.344,278,156.344,274,150.344,278" style="stroke:#181818;stroke-width:1.0;"/><text fill="#000000" font-family="sans-serif" font-size="13" lengthAdjust="spacing" textLength="4" x="158.0647" y="273.7428"> </text><text fill="#000000" font-family="sans-serif" font-size="13" lengthAdjust="spacing" textLength="7" x="170.2027" y="273.4408">*</text></g><!--MD5=[6602fa66529364367904d25dc7188bfd]
reverse link Extractor to Predictor--><g id="link_Extractor_Predictor"><path codeLine="28" d="M414.56,164.435 C439.991,195.74 468.764,231.162 487.127,253.767 " fill="none" id="Extractor-backto-Predictor" style="stroke:#181818;stroke-width:1.0;"/><polygon fill="#181818" points="406.084,154,406.7621,161.1792,413.6498,163.3145,412.9717,156.1353,406.084,154" style="stroke:#181818;stroke-width:1.0;"/><text fill="#000000" font-family="sans-serif" font-size="13" lengthAdjust="spacing" textLength="39" x="443" y="199.0669">wraps</text><text fill="#000000" font-family="sans-serif" font-size="13" lengthAdjust="spacing" textLength="8" x="403.3479" y="174.2634">1</text><text fill="#000000" font-family="sans-serif" font-size="13" lengthAdjust="spacing" textLength="8" x="473.5517" y="243.1152">1</text></g><!--MD5=[b4523a377309aaf2642d933fb869136b]
reverse link Extractor to DataFrame--><g id="link_Extractor_DataFrame"><path codeLine="30" d="M361,159.169 C361,191.695 361,229.884 361,253.767 " fill="none" id="Extractor-backto-DataFrame" style="stroke:#181818;stroke-width:1.0;"/><polygon fill="#181818" points="361,154,357,163,361,159,365,163,361,154" style="stroke:#181818;stroke-width:1.0;"/><text fill="#000000" font-family="sans-serif" font-size="13" lengthAdjust="spacing" textLength="49" x="362" y="199.0669">input of</text></g><!--MD5=[0042e1cd7ea1f958bbcbb6476abcba93]
link Extractor to Theory--><g id="link_Extractor_Theory"><path codeLine="31" d="M250.937,154.058 C222.375,170.649 192.497,190.056 167,211 C153.233,222.309 139.955,237.037 129.586,249.71 " fill="none" id="Extractor-to-Theory" style="stroke:#181818;stroke-width:1.0;"/><polygon fill="#181818" points="126.184,253.921,134.9513,249.4338,129.3261,250.0316,128.7282,244.4064,126.184,253.921" style="stroke:#181818;stroke-width:1.0;"/><text fill="#000000" font-family="sans-serif" font-size="13" lengthAdjust="spacing" textLength="59" x="198" y="199.0669">output of</text></g><!--MD5=[5e73e73218e9156b21c11b3b513d67b3]
@startuml
package "Underlying ML library" as ML {
  interface Predictor<R>
  interface DataFrame

  interface Classifier<R>
  interface Regressor<R>

  Predictor <|- - Classifier
  Predictor <|- - Regressor
}

package "Underlying Symbolic AI library" as AI {
  interface Rule
  interface Theory

  Theory " " *-right- "*" Rule
}

package Psyke {
  interface Extractor<R, P : Predictor<T>> {
    + predictor: P
    + discretization: Discretization
    + extract(DataFrame): Theory
    + predict(DataFrame): R
  }
}

Extractor "1" *- - "1" Predictor: wraps

DataFrame -left-> Extractor: input of
Extractor - -> Theory: output of
@enduml

PlantUML version 1.2022.13beta7(Unknown compile time)
(GPL source distribution)
Java Runtime: Java(TM) SE Runtime Environment
JVM: Java HotSpot(TM) 64-Bit Server VM
Default Encoding: UTF-8
Language: en
Country: US
--></g></svg>