<?xml version="1.0" encoding="UTF-8" standalone="no"?>
<svg xmlns="http://www.w3.org/2000/svg" xmlns:xlink="http://www.w3.org/1999/xlink" contentScriptType="application/ecmascript" contentStyleType="text/css" height="572px" preserveAspectRatio="none" style="width:953px;height:572px;background:#FFFFFF;" version="1.1" viewBox="0 0 953 572" width="953px" zoomAndPan="magnify"><defs><filter height="300%" id="fh14m5f13ghaq" width="300%" x="-1" y="-1"><feGaussianBlur result="blurOut" stdDeviation="2.0"/><feColorMatrix in="blurOut" result="blurOut2" type="matrix" values="0 0 0 0 0 0 0 0 0 0 0 0 0 0 0 0 0 0 .4 0"/><feOffset dx="4.0" dy="4.0" in="blurOut2" result="blurOut3"/><feBlend in="SourceGraphic" in2="blurOut3" mode="normal"/></filter></defs><g><!--MD5=[261e41381506d86abf2526084a974739]
cluster Underlying ML library--><polygon fill="#FFFFFF" filter="url(#fh14m5f13ghaq)" points="685,190,863,190,870,212.2969,936,212.2969,936,417.5,685,417.5,685,190" style="stroke:#000000;stroke-width:1.5;"/><line style="stroke:#000000;stroke-width:1.5;" x1="685" x2="870" y1="212.2969" y2="212.2969"/><text fill="#000000" font-family="sans-serif" font-size="14" font-weight="bold" lengthAdjust="spacing" textLength="172" x="689" y="204.9951">Underlying ML library</text><!--MD5=[b51e42561c9c456a9b76912476fe5dae]
cluster Underlying Symbolic AI library--><polygon fill="#FFFFFF" filter="url(#fh14m5f13ghaq)" points="402,190,651,190,658,212.2969,661,212.2969,661,289,402,289,402,190" style="stroke:#000000;stroke-width:1.5;"/><line style="stroke:#000000;stroke-width:1.5;" x1="402" x2="658" y1="212.2969" y2="212.2969"/><text fill="#000000" font-family="sans-serif" font-size="14" font-weight="bold" lengthAdjust="spacing" textLength="243" x="406" y="204.9951">Underlying Symbolic AI library</text><!--MD5=[f8b49f9524512fb09b13408ecf7ffd0b]
cluster Psyke--><polygon fill="#FFFFFF" filter="url(#fh14m5f13ghaq)" points="16,6,68,6,75,28.2969,378,28.2969,378,565.5,16,565.5,16,6" style="stroke:#000000;stroke-width:1.5;"/><line style="stroke:#000000;stroke-width:1.5;" x1="16" x2="75" y1="28.2969" y2="28.2969"/><text fill="#000000" font-family="sans-serif" font-size="14" font-weight="bold" lengthAdjust="spacing" textLength="46" x="20" y="20.9951">Psyke</text><!--MD5=[4b14b1ad0a11b0e65e5cf7d2c67307f1]
class Predictor--><rect codeLine="2" fill="#FEFECE" filter="url(#fh14m5f13ghaq)" height="48" id="Predictor" style="stroke:#A80036;stroke-width:1.5;" width="86" x="834" y="225"/><ellipse cx="849" cy="241" fill="#B4A7E5" rx="11" ry="11" style="stroke:#A80036;stroke-width:1.0;"/><path d="M849.9531,237.7813 L851.6719,237.7813 C852.0625,237.7813 852.25,237.75 852.375,237.6719 C852.6406,237.5156 852.7813,237.2344 852.7813,236.9375 C852.7813,236.6719 852.6719,236.4063 852.4375,236.2344 C852.2656,236.125 852.125,236.0938 851.6719,236.0938 L846.5313,236.0938 C846.0938,236.0938 845.9688,236.1094 845.8125,236.2031 C845.5625,236.3594 845.4063,236.6563 845.4063,236.9375 C845.4063,237.2188 845.5469,237.4688 845.7656,237.6406 C845.9219,237.75 846.1094,237.7813 846.5313,237.7813 L848.25,237.7813 L848.25,244.2969 L846.5313,244.2969 C846.0938,244.2969 845.9688,244.3125 845.8125,244.4219 C845.5625,244.5781 845.4063,244.8594 845.4063,245.1563 C845.4063,245.4063 845.5469,245.6719 845.7656,245.8281 C845.9219,245.9531 846.125,246 846.5313,246 L851.6719,246 C852.4219,246 852.7813,245.7188 852.7813,245.1563 C852.7813,244.875 852.6719,244.625 852.4375,244.4531 C852.2656,244.3281 852.125,244.2969 851.6719,244.2969 L849.9531,244.2969 L849.9531,237.7813 Z " fill="#000000"/><text fill="#000000" font-family="sans-serif" font-size="12" font-style="italic" lengthAdjust="spacing" textLength="54" x="863" y="245.1543">Predictor</text><line style="stroke:#A80036;stroke-width:1.5;" x1="835" x2="919" y1="257" y2="257"/><line style="stroke:#A80036;stroke-width:1.5;" x1="835" x2="919" y1="265" y2="265"/><!--MD5=[1182380c4c765c1b1c19ec976452f089]
class DataFrame--><rect codeLine="3" fill="#FEFECE" filter="url(#fh14m5f13ghaq)" height="48" id="DataFrame" style="stroke:#A80036;stroke-width:1.5;" width="98" x="701" y="225"/><ellipse cx="716" cy="241" fill="#B4A7E5" rx="11" ry="11" style="stroke:#A80036;stroke-width:1.0;"/><path d="M716.9531,237.7813 L718.6719,237.7813 C719.0625,237.7813 719.25,237.75 719.375,237.6719 C719.6406,237.5156 719.7813,237.2344 719.7813,236.9375 C719.7813,236.6719 719.6719,236.4063 719.4375,236.2344 C719.2656,236.125 719.125,236.0938 718.6719,236.0938 L713.5313,236.0938 C713.0938,236.0938 712.9688,236.1094 712.8125,236.2031 C712.5625,236.3594 712.4063,236.6563 712.4063,236.9375 C712.4063,237.2188 712.5469,237.4688 712.7656,237.6406 C712.9219,237.75 713.1094,237.7813 713.5313,237.7813 L715.25,237.7813 L715.25,244.2969 L713.5313,244.2969 C713.0938,244.2969 712.9688,244.3125 712.8125,244.4219 C712.5625,244.5781 712.4063,244.8594 712.4063,245.1563 C712.4063,245.4063 712.5469,245.6719 712.7656,245.8281 C712.9219,245.9531 713.125,246 713.5313,246 L718.6719,246 C719.4219,246 719.7813,245.7188 719.7813,245.1563 C719.7813,244.875 719.6719,244.625 719.4375,244.4531 C719.2656,244.3281 719.125,244.2969 718.6719,244.2969 L716.9531,244.2969 L716.9531,237.7813 Z " fill="#000000"/><text fill="#000000" font-family="sans-serif" font-size="12" font-style="italic" lengthAdjust="spacing" textLength="66" x="730" y="245.1543">DataFrame</text><line style="stroke:#A80036;stroke-width:1.5;" x1="702" x2="798" y1="257" y2="257"/><line style="stroke:#A80036;stroke-width:1.5;" x1="702" x2="798" y1="265" y2="265"/><!--MD5=[e5192d39c070dac6a79b288c93719d10]
class Classifier--><rect codeLine="5" fill="#FEFECE" filter="url(#fh14m5f13ghaq)" height="48" id="Classifier" style="stroke:#A80036;stroke-width:1.5;" width="84" x="709" y="353.5"/><ellipse cx="724" cy="369.5" fill="#B4A7E5" rx="11" ry="11" style="stroke:#A80036;stroke-width:1.0;"/><path d="M724.9531,366.2813 L726.6719,366.2813 C727.0625,366.2813 727.25,366.25 727.375,366.1719 C727.6406,366.0156 727.7813,365.7344 727.7813,365.4375 C727.7813,365.1719 727.6719,364.9063 727.4375,364.7344 C727.2656,364.625 727.125,364.5938 726.6719,364.5938 L721.5313,364.5938 C721.0938,364.5938 720.9688,364.6094 720.8125,364.7031 C720.5625,364.8594 720.4063,365.1563 720.4063,365.4375 C720.4063,365.7188 720.5469,365.9688 720.7656,366.1406 C720.9219,366.25 721.1094,366.2813 721.5313,366.2813 L723.25,366.2813 L723.25,372.7969 L721.5313,372.7969 C721.0938,372.7969 720.9688,372.8125 720.8125,372.9219 C720.5625,373.0781 720.4063,373.3594 720.4063,373.6563 C720.4063,373.9063 720.5469,374.1719 720.7656,374.3281 C720.9219,374.4531 721.125,374.5 721.5313,374.5 L726.6719,374.5 C727.4219,374.5 727.7813,374.2188 727.7813,373.6563 C727.7813,373.375 727.6719,373.125 727.4375,372.9531 C727.2656,372.8281 727.125,372.7969 726.6719,372.7969 L724.9531,372.7969 L724.9531,366.2813 Z " fill="#000000"/><text fill="#000000" font-family="sans-serif" font-size="12" font-style="italic" lengthAdjust="spacing" textLength="52" x="738" y="373.6543">Classifier</text><line style="stroke:#A80036;stroke-width:1.5;" x1="710" x2="792" y1="385.5" y2="385.5"/><line style="stroke:#A80036;stroke-width:1.5;" x1="710" x2="792" y1="393.5" y2="393.5"/><!--MD5=[a1003969a41c231021ce83512ea337cd]
class Regressor--><rect codeLine="6" fill="#FEFECE" filter="url(#fh14m5f13ghaq)" height="48" id="Regressor" style="stroke:#A80036;stroke-width:1.5;" width="91" x="828.5" y="353.5"/><ellipse cx="843.5" cy="369.5" fill="#B4A7E5" rx="11" ry="11" style="stroke:#A80036;stroke-width:1.0;"/><path d="M844.4531,366.2813 L846.1719,366.2813 C846.5625,366.2813 846.75,366.25 846.875,366.1719 C847.1406,366.0156 847.2813,365.7344 847.2813,365.4375 C847.2813,365.1719 847.1719,364.9063 846.9375,364.7344 C846.7656,364.625 846.625,364.5938 846.1719,364.5938 L841.0313,364.5938 C840.5938,364.5938 840.4688,364.6094 840.3125,364.7031 C840.0625,364.8594 839.9063,365.1563 839.9063,365.4375 C839.9063,365.7188 840.0469,365.9688 840.2656,366.1406 C840.4219,366.25 840.6094,366.2813 841.0313,366.2813 L842.75,366.2813 L842.75,372.7969 L841.0313,372.7969 C840.5938,372.7969 840.4688,372.8125 840.3125,372.9219 C840.0625,373.0781 839.9063,373.3594 839.9063,373.6563 C839.9063,373.9063 840.0469,374.1719 840.2656,374.3281 C840.4219,374.4531 840.625,374.5 841.0313,374.5 L846.1719,374.5 C846.9219,374.5 847.2813,374.2188 847.2813,373.6563 C847.2813,373.375 847.1719,373.125 846.9375,372.9531 C846.7656,372.8281 846.625,372.7969 846.1719,372.7969 L844.4531,372.7969 L844.4531,366.2813 Z " fill="#000000"/><text fill="#000000" font-family="sans-serif" font-size="12" font-style="italic" lengthAdjust="spacing" textLength="59" x="857.5" y="373.6543">Regressor</text><line style="stroke:#A80036;stroke-width:1.5;" x1="829.5" x2="918.5" y1="385.5" y2="385.5"/><line style="stroke:#A80036;stroke-width:1.5;" x1="829.5" x2="918.5" y1="393.5" y2="393.5"/><!--MD5=[4cf87534c235239d37db4adfd136fff4]
class Rule--><rect codeLine="13" fill="#FEFECE" filter="url(#fh14m5f13ghaq)" height="48" id="Rule" style="stroke:#A80036;stroke-width:1.5;" width="58" x="527" y="225"/><ellipse cx="542" cy="241" fill="#B4A7E5" rx="11" ry="11" style="stroke:#A80036;stroke-width:1.0;"/><path d="M542.9531,237.7813 L544.6719,237.7813 C545.0625,237.7813 545.25,237.75 545.375,237.6719 C545.6406,237.5156 545.7813,237.2344 545.7813,236.9375 C545.7813,236.6719 545.6719,236.4063 545.4375,236.2344 C545.2656,236.125 545.125,236.0938 544.6719,236.0938 L539.5313,236.0938 C539.0938,236.0938 538.9688,236.1094 538.8125,236.2031 C538.5625,236.3594 538.4063,236.6563 538.4063,236.9375 C538.4063,237.2188 538.5469,237.4688 538.7656,237.6406 C538.9219,237.75 539.1094,237.7813 539.5313,237.7813 L541.25,237.7813 L541.25,244.2969 L539.5313,244.2969 C539.0938,244.2969 538.9688,244.3125 538.8125,244.4219 C538.5625,244.5781 538.4063,244.8594 538.4063,245.1563 C538.4063,245.4063 538.5469,245.6719 538.7656,245.8281 C538.9219,245.9531 539.125,246 539.5313,246 L544.6719,246 C545.4219,246 545.7813,245.7188 545.7813,245.1563 C545.7813,244.875 545.6719,244.625 545.4375,244.4531 C545.2656,244.3281 545.125,244.2969 544.6719,244.2969 L542.9531,244.2969 L542.9531,237.7813 Z " fill="#000000"/><text fill="#000000" font-family="sans-serif" font-size="12" font-style="italic" lengthAdjust="spacing" textLength="26" x="556" y="245.1543">Rule</text><line style="stroke:#A80036;stroke-width:1.5;" x1="528" x2="584" y1="257" y2="257"/><line style="stroke:#A80036;stroke-width:1.5;" x1="528" x2="584" y1="265" y2="265"/><!--MD5=[edea06a7d58d16627e96798795365c36]
class Theory--><rect codeLine="14" fill="#FEFECE" filter="url(#fh14m5f13ghaq)" height="48" id="Theory" style="stroke:#A80036;stroke-width:1.5;" width="73" x="418.5" y="225"/><ellipse cx="433.5" cy="241" fill="#B4A7E5" rx="11" ry="11" style="stroke:#A80036;stroke-width:1.0;"/><path d="M434.4531,237.7813 L436.1719,237.7813 C436.5625,237.7813 436.75,237.75 436.875,237.6719 C437.1406,237.5156 437.2813,237.2344 437.2813,236.9375 C437.2813,236.6719 437.1719,236.4063 436.9375,236.2344 C436.7656,236.125 436.625,236.0938 436.1719,236.0938 L431.0313,236.0938 C430.5938,236.0938 430.4688,236.1094 430.3125,236.2031 C430.0625,236.3594 429.9063,236.6563 429.9063,236.9375 C429.9063,237.2188 430.0469,237.4688 430.2656,237.6406 C430.4219,237.75 430.6094,237.7813 431.0313,237.7813 L432.75,237.7813 L432.75,244.2969 L431.0313,244.2969 C430.5938,244.2969 430.4688,244.3125 430.3125,244.4219 C430.0625,244.5781 429.9063,244.8594 429.9063,245.1563 C429.9063,245.4063 430.0469,245.6719 430.2656,245.8281 C430.4219,245.9531 430.625,246 431.0313,246 L436.1719,246 C436.9219,246 437.2813,245.7188 437.2813,245.1563 C437.2813,244.875 437.1719,244.625 436.9375,244.4531 C436.7656,244.3281 436.625,244.2969 436.1719,244.2969 L434.4531,244.2969 L434.4531,237.7813 Z " fill="#000000"/><text fill="#000000" font-family="sans-serif" font-size="12" font-style="italic" lengthAdjust="spacing" textLength="41" x="447.5" y="245.1543">Theory</text><line style="stroke:#A80036;stroke-width:1.5;" x1="419.5" x2="490.5" y1="257" y2="257"/><line style="stroke:#A80036;stroke-width:1.5;" x1="419.5" x2="490.5" y1="265" y2="265"/><!--MD5=[20080be7d9e2470b3df5c67a700ed6c2]
class Extractor--><rect codeLine="20" fill="#FEFECE" filter="url(#fh14m5f13ghaq)" height="86.4141" id="Extractor" style="stroke:#A80036;stroke-width:1.5;" width="187" x="174.5" y="41"/><ellipse cx="199.4" cy="57" fill="#B4A7E5" rx="11" ry="11" style="stroke:#A80036;stroke-width:1.0;"/><path d="M200.3531,53.7813 L202.0719,53.7813 C202.4625,53.7813 202.65,53.75 202.775,53.6719 C203.0406,53.5156 203.1813,53.2344 203.1813,52.9375 C203.1813,52.6719 203.0719,52.4063 202.8375,52.2344 C202.6656,52.125 202.525,52.0938 202.0719,52.0938 L196.9313,52.0938 C196.4938,52.0938 196.3688,52.1094 196.2125,52.2031 C195.9625,52.3594 195.8063,52.6563 195.8063,52.9375 C195.8063,53.2188 195.9469,53.4688 196.1656,53.6406 C196.3219,53.75 196.5094,53.7813 196.9313,53.7813 L198.65,53.7813 L198.65,60.2969 L196.9313,60.2969 C196.4938,60.2969 196.3688,60.3125 196.2125,60.4219 C195.9625,60.5781 195.8063,60.8594 195.8063,61.1563 C195.8063,61.4063 195.9469,61.6719 196.1656,61.8281 C196.3219,61.9531 196.525,62 196.9313,62 L202.0719,62 C202.8219,62 203.1813,61.7188 203.1813,61.1563 C203.1813,60.875 203.0719,60.625 202.8375,60.4531 C202.6656,60.3281 202.525,60.2969 202.0719,60.2969 L200.3531,60.2969 L200.3531,53.7813 Z " fill="#000000"/><text fill="#000000" font-family="sans-serif" font-size="12" font-style="italic" lengthAdjust="spacing" textLength="56" x="215.6" y="61.1543">Extractor</text><rect fill="#FFFFFF" height="15.9688" style="stroke:#000000;stroke-width:1.0;stroke-dasharray:2.0,2.0;" width="75" x="289.5" y="38"/><text fill="#000000" font-family="sans-serif" font-size="12" font-style="italic" lengthAdjust="spacing" textLength="73" x="290.5" y="50.1387">P : Predictor</text><line style="stroke:#A80036;stroke-width:1.5;" x1="175.5" x2="360.5" y1="73" y2="73"/><ellipse cx="185.5" cy="84" rx="3" ry="3" style="stroke:#038048;stroke-width:1.0;fill:none;"/><text fill="#000000" font-family="sans-serif" font-size="11" lengthAdjust="spacing" textLength="63" x="194.5" y="87.2104">predictor: P</text><ellipse cx="185.5" cy="96.8047" rx="3" ry="3" style="stroke:#038048;stroke-width:1.0;fill:none;"/><text fill="#000000" font-family="sans-serif" font-size="11" lengthAdjust="spacing" textLength="161" x="194.5" y="100.0151">discretization: Discretization</text><line style="stroke:#A80036;stroke-width:1.5;" x1="175.5" x2="360.5" y1="106.6094" y2="106.6094"/><ellipse cx="185.5" cy="117.6094" fill="#84BE84" rx="3" ry="3" style="stroke:#038048;stroke-width:1.0;"/><text fill="#000000" font-family="sans-serif" font-size="11" lengthAdjust="spacing" textLength="158" x="194.5" y="120.8198">extract(DataFrame): Theory</text><!--MD5=[5cea65e35c00b3ed9238677b07778542]
class Discretization--><rect codeLine="26" fill="#FEFECE" filter="url(#fh14m5f13ghaq)" height="60.8047" id="Discretization" style="stroke:#A80036;stroke-width:1.5;" width="247" x="112.5" y="218.5"/><ellipse cx="191.25" cy="234.5" fill="#B4A7E5" rx="11" ry="11" style="stroke:#A80036;stroke-width:1.0;"/><path d="M192.2031,231.2813 L193.9219,231.2813 C194.3125,231.2813 194.5,231.25 194.625,231.1719 C194.8906,231.0156 195.0313,230.7344 195.0313,230.4375 C195.0313,230.1719 194.9219,229.9063 194.6875,229.7344 C194.5156,229.625 194.375,229.5938 193.9219,229.5938 L188.7813,229.5938 C188.3438,229.5938 188.2188,229.6094 188.0625,229.7031 C187.8125,229.8594 187.6563,230.1563 187.6563,230.4375 C187.6563,230.7188 187.7969,230.9688 188.0156,231.1406 C188.1719,231.25 188.3594,231.2813 188.7813,231.2813 L190.5,231.2813 L190.5,237.7969 L188.7813,237.7969 C188.3438,237.7969 188.2188,237.8125 188.0625,237.9219 C187.8125,238.0781 187.6563,238.3594 187.6563,238.6563 C187.6563,238.9063 187.7969,239.1719 188.0156,239.3281 C188.1719,239.4531 188.375,239.5 188.7813,239.5 L193.9219,239.5 C194.6719,239.5 195.0313,239.2188 195.0313,238.6563 C195.0313,238.375 194.9219,238.125 194.6875,237.9531 C194.5156,237.8281 194.375,237.7969 193.9219,237.7969 L192.2031,237.7969 L192.2031,231.2813 Z " fill="#000000"/><text fill="#000000" font-family="sans-serif" font-size="12" font-style="italic" lengthAdjust="spacing" textLength="81" x="211.75" y="238.6543">Discretization</text><line style="stroke:#A80036;stroke-width:1.5;" x1="113.5" x2="358.5" y1="250.5" y2="250.5"/><ellipse cx="123.5" cy="261.5" rx="3" ry="3" style="stroke:#038048;stroke-width:1.0;fill:none;"/><text fill="#000000" font-family="sans-serif" font-size="11" lengthAdjust="spacing" textLength="221" x="132.5" y="264.7104">features: Collection&lt;DiscreteFeature&gt;</text><line style="stroke:#A80036;stroke-width:1.5;" x1="113.5" x2="358.5" y1="271.3047" y2="271.3047"/><!--MD5=[4e3358558b084009657eaf98eaf35d97]
class DiscreteFeature--><rect codeLine="32" fill="#FEFECE" filter="url(#fh14m5f13ghaq)" height="73.6094" id="DiscreteFeature" style="stroke:#A80036;stroke-width:1.5;" width="247" x="89.5" y="340.5"/><ellipse cx="161.25" cy="356.5" fill="#B4A7E5" rx="11" ry="11" style="stroke:#A80036;stroke-width:1.0;"/><path d="M162.2031,353.2813 L163.9219,353.2813 C164.3125,353.2813 164.5,353.25 164.625,353.1719 C164.8906,353.0156 165.0313,352.7344 165.0313,352.4375 C165.0313,352.1719 164.9219,351.9063 164.6875,351.7344 C164.5156,351.625 164.375,351.5938 163.9219,351.5938 L158.7813,351.5938 C158.3438,351.5938 158.2188,351.6094 158.0625,351.7031 C157.8125,351.8594 157.6563,352.1563 157.6563,352.4375 C157.6563,352.7188 157.7969,352.9688 158.0156,353.1406 C158.1719,353.25 158.3594,353.2813 158.7813,353.2813 L160.5,353.2813 L160.5,359.7969 L158.7813,359.7969 C158.3438,359.7969 158.2188,359.8125 158.0625,359.9219 C157.8125,360.0781 157.6563,360.3594 157.6563,360.6563 C157.6563,360.9063 157.7969,361.1719 158.0156,361.3281 C158.1719,361.4531 158.375,361.5 158.7813,361.5 L163.9219,361.5 C164.6719,361.5 165.0313,361.2188 165.0313,360.6563 C165.0313,360.375 164.9219,360.125 164.6875,359.9531 C164.5156,359.8281 164.375,359.7969 163.9219,359.7969 L162.2031,359.7969 L162.2031,353.2813 Z " fill="#000000"/><text fill="#000000" font-family="sans-serif" font-size="12" font-style="italic" lengthAdjust="spacing" textLength="95" x="181.75" y="360.6543">DiscreteFeature</text><line style="stroke:#A80036;stroke-width:1.5;" x1="90.5" x2="335.5" y1="372.5" y2="372.5"/><ellipse cx="100.5" cy="383.5" rx="3" ry="3" style="stroke:#038048;stroke-width:1.0;fill:none;"/><text fill="#000000" font-family="sans-serif" font-size="11" lengthAdjust="spacing" textLength="73" x="109.5" y="386.7104">name: String</text><ellipse cx="100.5" cy="396.3047" rx="3" ry="3" style="stroke:#038048;stroke-width:1.0;fill:none;"/><text fill="#000000" font-family="sans-serif" font-size="11" lengthAdjust="spacing" textLength="221" x="109.5" y="399.5151">admissibleValues: Map&lt;String, Value&gt;</text><line style="stroke:#A80036;stroke-width:1.5;" x1="90.5" x2="335.5" y1="406.1094" y2="406.1094"/><!--MD5=[ff3d20c1112759d46dde2fcead238479]
class Value--><rect codeLine="39" fill="#FEFECE" filter="url(#fh14m5f13ghaq)" height="48" id="Value" style="stroke:#A80036;stroke-width:1.5;" width="65" x="174.5" y="488.5"/><ellipse cx="189.5" cy="504.5" fill="#A9DCDF" rx="11" ry="11" style="stroke:#A80036;stroke-width:1.0;"/><path d="M191.5781,506.3125 L191.9688,507.2969 L191.5781,507.2969 C191.125,507.2969 191.0156,507.3125 190.8594,507.4219 C190.6094,507.5781 190.4531,507.8594 190.4531,508.1563 C190.4531,508.4219 190.5938,508.6719 190.8125,508.8281 C190.9531,508.9531 191.1563,509 191.5781,509 L193.9375,509 C194.2969,509 194.5156,508.9688 194.6563,508.875 C194.9063,508.7344 195.0625,508.4375 195.0625,508.1563 C195.0625,507.875 194.9219,507.625 194.7031,507.4688 C194.5313,507.3281 194.375,507.2969 193.9063,507.2969 L190.5156,499.0938 L186.8438,499.0938 C186.3906,499.0938 186.2656,499.1094 186.1094,499.2031 C185.8594,499.375 185.7031,499.6563 185.7031,499.9375 C185.7031,500.2188 185.8438,500.4688 186.0625,500.6406 C186.2344,500.75 186.4063,500.7813 186.8438,500.7813 L187.9219,500.7813 L185.2813,507.2969 C184.8594,507.2969 184.7031,507.3125 184.5469,507.4219 C184.2969,507.5781 184.1406,507.8594 184.1406,508.1563 C184.1406,508.7188 184.5156,509 185.2656,509 L187.5313,509 C187.8906,509 188.1094,508.9688 188.2344,508.875 C188.5,508.7344 188.6406,508.4375 188.6406,508.1563 C188.6406,507.875 188.5156,507.625 188.2969,507.4531 C188.125,507.3281 187.9844,507.2969 187.5313,507.2969 L187.1406,507.2969 L187.5313,506.3125 L191.5781,506.3125 Z M190.875,504.6094 L188.2031,504.6094 L189.5469,501.3438 L190.875,504.6094 Z " fill="#000000"/><text fill="#000000" font-family="sans-serif" font-size="12" font-style="italic" lengthAdjust="spacing" textLength="33" x="203.5" y="508.6543">Value</text><line style="stroke:#A80036;stroke-width:1.5;" x1="175.5" x2="238.5" y1="520.5" y2="520.5"/><line style="stroke:#A80036;stroke-width:1.5;" x1="175.5" x2="238.5" y1="528.5" y2="528.5"/><!--MD5=[94b2979dc8db7061b05b681130e8ecb6]
class Interval--><rect codeLine="43" fill="#FEFECE" filter="url(#fh14m5f13ghaq)" height="73.6094" id="Interval" style="stroke:#A80036;stroke-width:1.5;" width="107" x="32.5" y="475.5"/><ellipse cx="61.45" cy="491.5" fill="#ADD1B2" rx="11" ry="11" style="stroke:#A80036;stroke-width:1.0;"/><path d="M63.7938,487.1719 C62.8563,486.7344 62.2625,486.5938 61.3875,486.5938 C58.7625,486.5938 56.7625,488.6719 56.7625,491.3906 L56.7625,492.5156 C56.7625,495.0938 58.8719,496.9844 61.7625,496.9844 C62.9813,496.9844 64.1375,496.6875 64.8875,496.1406 C65.4656,495.7344 65.7938,495.2813 65.7938,494.8906 C65.7938,494.4375 65.4031,494.0469 64.9344,494.0469 C64.7156,494.0469 64.5125,494.125 64.325,494.3125 C63.8719,494.7969 63.8719,494.7969 63.6844,494.8906 C63.2625,495.1563 62.575,495.2813 61.8094,495.2813 C59.7625,495.2813 58.4656,494.1875 58.4656,492.4844 L58.4656,491.3906 C58.4656,489.6094 59.7156,488.2969 61.45,488.2969 C62.0281,488.2969 62.6375,488.4531 63.1063,488.7031 C63.5906,488.9844 63.7625,489.2031 63.8563,489.6094 C63.9188,490.0156 63.95,490.1406 64.0906,490.2656 C64.2313,490.4063 64.4656,490.5156 64.6844,490.5156 C64.95,490.5156 65.2156,490.375 65.3875,490.1563 C65.4969,490 65.5281,489.8125 65.5281,489.3906 L65.5281,487.9688 C65.5281,487.5313 65.5125,487.4063 65.4188,487.25 C65.2625,486.9844 64.9813,486.8438 64.6844,486.8438 C64.3875,486.8438 64.1844,486.9375 63.9656,487.25 L63.7938,487.1719 Z " fill="#000000"/><text fill="#000000" font-family="sans-serif" font-size="12" lengthAdjust="spacing" textLength="44" x="78.55" y="495.6543">Interval</text><line style="stroke:#A80036;stroke-width:1.5;" x1="33.5" x2="138.5" y1="507.5" y2="507.5"/><ellipse cx="43.5" cy="518.5" rx="3" ry="3" style="stroke:#038048;stroke-width:1.0;fill:none;"/><text fill="#000000" font-family="sans-serif" font-size="11" lengthAdjust="spacing" textLength="79" x="52.5" y="521.7104">lower: Double</text><ellipse cx="43.5" cy="531.3047" rx="3" ry="3" style="stroke:#038048;stroke-width:1.0;fill:none;"/><text fill="#000000" font-family="sans-serif" font-size="11" lengthAdjust="spacing" textLength="81" x="52.5" y="534.5151">upper: Double</text><line style="stroke:#A80036;stroke-width:1.5;" x1="33.5" x2="138.5" y1="541.1094" y2="541.1094"/><!--MD5=[54b85b6d1a687c59d530998eb343c279]
class Constant--><rect codeLine="48" fill="#FEFECE" filter="url(#fh14m5f13ghaq)" height="60.8047" id="Constant" style="stroke:#A80036;stroke-width:1.5;" width="87" x="274.5" y="482"/><ellipse cx="290.85" cy="498" fill="#ADD1B2" rx="11" ry="11" style="stroke:#A80036;stroke-width:1.0;"/><path d="M293.1938,493.6719 C292.2563,493.2344 291.6625,493.0938 290.7875,493.0938 C288.1625,493.0938 286.1625,495.1719 286.1625,497.8906 L286.1625,499.0156 C286.1625,501.5938 288.2719,503.4844 291.1625,503.4844 C292.3813,503.4844 293.5375,503.1875 294.2875,502.6406 C294.8656,502.2344 295.1938,501.7813 295.1938,501.3906 C295.1938,500.9375 294.8031,500.5469 294.3344,500.5469 C294.1156,500.5469 293.9125,500.625 293.725,500.8125 C293.2719,501.2969 293.2719,501.2969 293.0844,501.3906 C292.6625,501.6563 291.975,501.7813 291.2094,501.7813 C289.1625,501.7813 287.8656,500.6875 287.8656,498.9844 L287.8656,497.8906 C287.8656,496.1094 289.1156,494.7969 290.85,494.7969 C291.4281,494.7969 292.0375,494.9531 292.5063,495.2031 C292.9906,495.4844 293.1625,495.7031 293.2563,496.1094 C293.3188,496.5156 293.35,496.6406 293.4906,496.7656 C293.6313,496.9063 293.8656,497.0156 294.0844,497.0156 C294.35,497.0156 294.6156,496.875 294.7875,496.6563 C294.8969,496.5 294.9281,496.3125 294.9281,495.8906 L294.9281,494.4688 C294.9281,494.0313 294.9125,493.9063 294.8188,493.75 C294.6625,493.4844 294.3813,493.3438 294.0844,493.3438 C293.7875,493.3438 293.5844,493.4375 293.3656,493.75 L293.1938,493.6719 Z " fill="#000000"/><text fill="#000000" font-family="sans-serif" font-size="12" lengthAdjust="spacing" textLength="52" x="305.15" y="502.1543">Constant</text><line style="stroke:#A80036;stroke-width:1.5;" x1="275.5" x2="360.5" y1="514" y2="514"/><ellipse cx="285.5" cy="525" rx="3" ry="3" style="stroke:#038048;stroke-width:1.0;fill:none;"/><text fill="#000000" font-family="sans-serif" font-size="11" lengthAdjust="spacing" textLength="61" x="294.5" y="528.2104">value: Any</text><line style="stroke:#A80036;stroke-width:1.5;" x1="275.5" x2="360.5" y1="534.8047" y2="534.8047"/><!--MD5=[d9b11c3c609a9aefb59a80877f08d669]
reverse link Predictor to Classifier--><path codeLine="8" d="M839.707,287.441 C818.378,308.854 792.306,335.03 773.964,353.445 " fill="none" id="Predictor-backto-Classifier" style="stroke:#A80036;stroke-width:1.0;"/><polygon fill="none" points="834.816,282.432,853.89,273.202,844.735,292.312,834.816,282.432" style="stroke:#A80036;stroke-width:1.0;"/><!--MD5=[784e30f151bec541b541ac181bf67a73]
reverse link Predictor to Regressor--><path codeLine="9" d="M875.97,293.448 C875.492,313.594 874.943,336.721 874.547,353.445 " fill="none" id="Predictor-backto-Regressor" style="stroke:#A80036;stroke-width:1.0;"/><polygon fill="none" points="868.977,293.03,876.45,273.202,882.974,293.362,868.977,293.03" style="stroke:#A80036;stroke-width:1.0;"/><!--MD5=[268e2002bbd18903f9cc9e57355a1e1b]
reverse link Theory to Rule--><path codeLine="16" d="M504.88,249 C512.207,249 519.533,249 526.86,249 " fill="none" id="Theory-backto-Rule" style="stroke:#A80036;stroke-width:1.0;"/><polygon fill="#A80036" points="491.691,249,497.691,253,503.691,249,497.691,245,491.691,249" style="stroke:#A80036;stroke-width:1.0;"/><text fill="#000000" font-family="sans-serif" font-size="13" lengthAdjust="spacing" textLength="0" x="503.671" y="244.5337"/><text fill="#000000" font-family="sans-serif" font-size="13" lengthAdjust="spacing" textLength="7" x="511.904" y="244.255">*</text><!--MD5=[0b88dee7394429782f3c227ee2e17bf7]
reverse link Extractor to Discretization--><path codeLine="30" d="M257.151,140.26 C252.013,166.433 246.081,196.648 241.81,218.407 " fill="none" id="Extractor-backto-Discretization" style="stroke:#A80036;stroke-width:1.0;"/><polygon fill="#A80036" points="259.676,127.401,254.595,132.518,257.3642,139.1762,262.4452,134.0592,259.676,127.401" style="stroke:#A80036;stroke-width:1.0;"/><text fill="#000000" font-family="sans-serif" font-size="13" lengthAdjust="spacing" textLength="39" x="254" y="170.0669">wraps</text><text fill="#000000" font-family="sans-serif" font-size="13" lengthAdjust="spacing" textLength="8" x="249.7119" y="147.5578">1</text><text fill="#000000" font-family="sans-serif" font-size="13" lengthAdjust="spacing" textLength="8" x="234.1833" y="207.6511">1</text><!--MD5=[b02207f65199d2998f4979b63415bcaa]
reverse link Discretization to DiscreteFeature--><path codeLine="37" d="M228.244,292.658 C225.434,308.111 222.29,325.406 219.59,340.255 " fill="none" id="Discretization-backto-DiscreteFeature" style="stroke:#A80036;stroke-width:1.0;"/><polygon fill="#FFFFFF" points="230.608,279.659,225.5992,284.8467,228.4614,291.4654,233.4702,286.2778,230.608,279.659" style="stroke:#A80036;stroke-width:1.0;"/><text fill="#000000" font-family="sans-serif" font-size="13" lengthAdjust="spacing" textLength="8" x="220.759" y="299.2707">1</text><text fill="#000000" font-family="sans-serif" font-size="13" lengthAdjust="spacing" textLength="9" x="210.9623" y="329.3983">N</text><!--MD5=[ffea9394c6c8c178ab74af24b953c680]
reverse link DiscreteFeature to Value--><path codeLine="41" d="M210.768,427.967 C209.838,448.59 208.802,471.557 208.052,488.181 " fill="none" id="DiscreteFeature-backto-Value" style="stroke:#A80036;stroke-width:1.0;"/><polygon fill="#FFFFFF" points="211.36,414.843,207.0937,420.6567,210.8194,426.8308,215.0856,421.0171,211.36,414.843" style="stroke:#A80036;stroke-width:1.0;"/><text fill="#000000" font-family="sans-serif" font-size="13" lengthAdjust="spacing" textLength="8" x="202.4611" y="434.0985">1</text><text fill="#000000" font-family="sans-serif" font-size="13" lengthAdjust="spacing" textLength="9" x="198.2116" y="477.5082">N</text><!--MD5=[1c1872962c9e663f1dcf0ceb56333c59]
link Interval to Value--><path codeLine="52" d="M139.883,512.5 C144.749,512.5 149.616,512.5 154.483,512.5 " fill="none" id="Interval-to-Value" style="stroke:#A80036;stroke-width:1.0;"/><polygon fill="none" points="154.49,505.4999,174.49,512.5,154.49,519.4999,154.49,505.4999" style="stroke:#A80036;stroke-width:1.0;"/><!--MD5=[285bad93da9797f11e4ecdc2c67a546b]
reverse link Value to Constant--><path codeLine="53" d="M259.724,512.5 C264.639,512.5 269.553,512.5 274.468,512.5 " fill="none" id="Value-backto-Constant" style="stroke:#A80036;stroke-width:1.0;"/><polygon fill="none" points="259.52,519.4999,239.52,512.5,259.519,505.4999,259.52,519.4999" style="stroke:#A80036;stroke-width:1.0;"/><!--MD5=[6602fa66529364367904d25dc7188bfd]
reverse link Extractor to Predictor--><path codeLine="56" d="M374.736,95.586 C512.302,110.632 742.641,140.997 817,182 C835.442,192.169 851.223,210.161 861.966,224.793 " fill="none" id="Extractor-backto-Predictor" style="stroke:#A80036;stroke-width:1.0;"/><polygon fill="#A80036" points="361.721,94.177,367.2558,98.7993,373.6514,95.468,368.1165,90.8457,361.721,94.177" style="stroke:#A80036;stroke-width:1.0;"/><text fill="#000000" font-family="sans-serif" font-size="13" lengthAdjust="spacing" textLength="39" x="795" y="170.0669">wraps</text><text fill="#000000" font-family="sans-serif" font-size="13" lengthAdjust="spacing" textLength="8" x="369.5081" y="91.446">1</text><text fill="#000000" font-family="sans-serif" font-size="13" lengthAdjust="spacing" textLength="8" x="849.0885" y="213.752">1</text><!--MD5=[b4523a377309aaf2642d933fb869136b]
reverse link Extractor to DataFrame--><path codeLine="58" d="M366.837,110.072 C433.681,127.932 523.551,153.71 601,182 C635.547,194.619 673.431,211.442 702.353,224.944 " fill="none" id="Extractor-backto-DataFrame" style="stroke:#A80036;stroke-width:1.0;"/><polygon fill="#A80036" points="361.66,108.692,369.3269,114.8741,366.4915,109.9792,371.3864,107.1437,361.66,108.692" style="stroke:#A80036;stroke-width:1.0;"/><text fill="#000000" font-family="sans-serif" font-size="13" lengthAdjust="spacing" textLength="49" x="576" y="170.0669">input of</text><!--MD5=[0042e1cd7ea1f958bbcbb6476abcba93]
link Extractor to Theory--><path codeLine="59" d="M316.644,127.401 C350.821,157.192 395.478,196.117 424.681,221.572 " fill="none" id="Extractor-to-Theory" style="stroke:#A80036;stroke-width:1.0;"/><polygon fill="#A80036" points="428.519,224.918,424.364,215.9885,424.7503,221.6322,419.1066,222.0185,428.519,224.918" style="stroke:#A80036;stroke-width:1.0;"/><text fill="#000000" font-family="sans-serif" font-size="13" lengthAdjust="spacing" textLength="59" x="369" y="170.0669">output of</text><!--MD5=[07518483ba4060dd3657d2c7fba6c0cb]
@startuml
package "Underlying ML library" {
  interface Predictor
  interface DataFrame

  interface Classifier
  interface Regressor

  Predictor <|- - Classifier
  Predictor <|- - Regressor
}

package "Underlying Symbolic AI library" {
  interface Rule
  interface Theory

  Theory " " *-right- "*" Rule
}

package Psyke {
  interface Extractor<P : Predictor> {
    + predictor: P
    + discretization: Discretization
    + extract(DataFrame): Theory
  }

  interface Discretization {
    + features: Collection<DiscreteFeature>
  }

  Extractor "1" *- - "1" Discretization: wraps

  interface DiscreteFeature {
    + name: String
    + admissibleValues: Map<String, Value>
  }

  Discretization "1" o- - "N" DiscreteFeature

  abstract class Value

  DiscreteFeature "1" o- - "N" Value

  class Interval {
    + lower: Double
    + upper: Double
  }

  class Constant {
    + value: Any
  }

  Value <|-left- Interval
  Value <|-right- Constant
}

Extractor "1" *- - "1" Predictor: wraps

DataFrame -left-> Extractor: input of
Extractor - -> Theory: output of
@enduml

PlantUML version 1.2021.12(Tue Oct 05 16:01:58 UTC 2021)
(GPL source distribution)
Java Runtime: Java(TM) SE Runtime Environment
JVM: Java HotSpot(TM) 64-Bit Server VM
Default Encoding: UTF-8
Language: en
Country: US
--></g></svg>