<?xml version="1.0" encoding="UTF-8" standalone="no"?>
<svg xmlns="http://www.w3.org/2000/svg" xmlns:xlink="http://www.w3.org/1999/xlink" contentStyleType="text/css" height="634px" preserveAspectRatio="none" style="width:853px;height:634px;background:#FFFFFF;" version="1.1" viewBox="0 0 853 634" width="853px" zoomAndPan="magnify"><defs/><g><!--MD5=[55dd6ab5c555ce5c49ff12deded08f2e]
cluster ski--><g id="cluster_ski"><path d="M8.5,6 L32.5,6 A3.75,3.75 0 0 1 35,8.5 L42,28.2969 L669.5,28.2969 A2.5,2.5 0 0 1 672,30.7969 L672,367.5 A2.5,2.5 0 0 1 669.5,370 L8.5,370 A2.5,2.5 0 0 1 6,367.5 L6,8.5 A2.5,2.5 0 0 1 8.5,6 " fill="none" style="stroke:#000000;stroke-width:1.5;"/><line style="stroke:#000000;stroke-width:1.5;" x1="6" x2="42" y1="28.2969" y2="28.2969"/><text fill="#000000" font-family="sans-serif" font-size="14" font-weight="bold" lengthAdjust="spacing" textLength="23" x="10" y="20.9951">ski</text></g><!--MD5=[cbbcdfd2ff286cf453505908e439d9c0]
cluster logic--><g id="cluster_logic"><path d="M94.5,394 L134.5,394 A3.75,3.75 0 0 1 137,396.5 L144,416.2969 L843.5,416.2969 A2.5,2.5 0 0 1 846,418.7969 L846,624.5 A2.5,2.5 0 0 1 843.5,627 L94.5,627 A2.5,2.5 0 0 1 92,624.5 L92,396.5 A2.5,2.5 0 0 1 94.5,394 " fill="none" style="stroke:#000000;stroke-width:1.5;"/><line style="stroke:#000000;stroke-width:1.5;" x1="92" x2="144" y1="416.2969" y2="416.2969"/><text fill="#000000" font-family="sans-serif" font-size="14" font-weight="bold" lengthAdjust="spacing" textLength="39" x="96" y="408.9951">logic</text></g><!--MD5=[19cfe72586b7d42db67d71afc75a0e8e]
cluster datalog--><g id="cluster_datalog"><path d="M157.5,437 L221.5,437 A3.75,3.75 0 0 1 224,439.5 L231,459.2969 L819.5,459.2969 A2.5,2.5 0 0 1 822,461.7969 L822,600.5 A2.5,2.5 0 0 1 819.5,603 L157.5,603 A2.5,2.5 0 0 1 155,600.5 L155,439.5 A2.5,2.5 0 0 1 157.5,437 " fill="none" style="stroke:#000000;stroke-width:1.5;"/><line style="stroke:#000000;stroke-width:1.5;" x1="155" x2="231" y1="459.2969" y2="459.2969"/><text fill="#000000" font-family="sans-serif" font-size="14" font-weight="bold" lengthAdjust="spacing" textLength="63" x="159" y="451.9951">datalog</text></g><!--MD5=[134e907e6cf414437f990521d1b8a4fe]
cluster grammar--><g id="cluster_grammar"><path d="M622.5,480 L697.5,480 A3.75,3.75 0 0 1 700,482.5 L707,502.2969 L795.5,502.2969 A2.5,2.5 0 0 1 798,504.7969 L798,576.5 A2.5,2.5 0 0 1 795.5,579 L622.5,579 A2.5,2.5 0 0 1 620,576.5 L620,482.5 A2.5,2.5 0 0 1 622.5,480 " fill="none" style="stroke:#000000;stroke-width:1.5;"/><line style="stroke:#000000;stroke-width:1.5;" x1="620" x2="707" y1="502.2969" y2="502.2969"/><text fill="#000000" font-family="sans-serif" font-size="14" font-weight="bold" lengthAdjust="spacing" textLength="74" x="624" y="494.9951">grammar</text></g><!--MD5=[0b751655c2c1ffbfbd2272aa0ecbc96a]
class Injector--><g id="elem_Injector"><rect codeLine="3" fill="#F1F1F1" height="80.5938" id="Injector" rx="2.5" ry="2.5" style="stroke:#181818;stroke-width:0.5;" width="319" x="210.5" y="41"/><ellipse cx="338.75" cy="57" fill="#B4A7E5" rx="11" ry="11" style="stroke:#181818;stroke-width:1.0;"/><path d="M339.7031,53.7813 L341.4219,53.7813 C341.8125,53.7813 342,53.75 342.125,53.6719 C342.3906,53.5156 342.5313,53.2344 342.5313,52.9375 C342.5313,52.6719 342.4219,52.4063 342.1875,52.2344 C342.0156,52.125 341.875,52.0938 341.4219,52.0938 L336.2813,52.0938 C335.8438,52.0938 335.7188,52.1094 335.5625,52.2031 C335.3125,52.3594 335.1563,52.6563 335.1563,52.9375 C335.1563,53.2188 335.2969,53.4688 335.5156,53.6406 C335.6719,53.75 335.8594,53.7813 336.2813,53.7813 L338,53.7813 L338,60.2969 L336.2813,60.2969 C335.8438,60.2969 335.7188,60.3125 335.5625,60.4219 C335.3125,60.5781 335.1563,60.8594 335.1563,61.1563 C335.1563,61.4063 335.2969,61.6719 335.5156,61.8281 C335.6719,61.9531 335.875,62 336.2813,62 L341.4219,62 C342.1719,62 342.5313,61.7188 342.5313,61.1563 C342.5313,60.875 342.4219,60.625 342.1875,60.4531 C342.0156,60.3281 341.875,60.2969 341.4219,60.2969 L339.7031,60.2969 L339.7031,53.7813 Z " fill="#000000"/><text fill="#000000" font-family="sans-serif" font-size="14" font-style="italic" lengthAdjust="spacing" textLength="54" x="359.25" y="61.8467">Injector</text><line style="stroke:#181818;stroke-width:0.5;" x1="211.5" x2="528.5" y1="73" y2="73"/><ellipse cx="221.5" cy="86.6484" fill="none" rx="3" ry="3" style="stroke:#038048;stroke-width:1.0;"/><text fill="#000000" font-family="sans-serif" font-size="14" lengthAdjust="spacing" textLength="144" x="230.5" y="89.9951">predictor: Predictor</text><line style="stroke:#181818;stroke-width:0.5;" x1="211.5" x2="528.5" y1="97.2969" y2="97.2969"/><ellipse cx="221.5" cy="110.9453" fill="#84BE84" rx="3" ry="3" style="stroke:#038048;stroke-width:1.0;"/><text fill="#000000" font-family="sans-serif" font-size="14" lengthAdjust="spacing" textLength="293" x="230.5" y="114.292">inject(formulae: List[Formula]): Predictor</text></g><!--MD5=[12d5cb9a516ff0522ea5edd8c6ca6601]
class Formula--><g id="elem_Formula"><rect codeLine="8" fill="#F1F1F1" height="48" id="Formula" rx="2.5" ry="2.5" style="stroke:#181818;stroke-width:0.5;" width="91" x="564.5" y="57.5"/><ellipse cx="579.5" cy="73.5" fill="#B4A7E5" rx="11" ry="11" style="stroke:#181818;stroke-width:1.0;"/><path d="M580.4531,70.2813 L582.1719,70.2813 C582.5625,70.2813 582.75,70.25 582.875,70.1719 C583.1406,70.0156 583.2813,69.7344 583.2813,69.4375 C583.2813,69.1719 583.1719,68.9063 582.9375,68.7344 C582.7656,68.625 582.625,68.5938 582.1719,68.5938 L577.0313,68.5938 C576.5938,68.5938 576.4688,68.6094 576.3125,68.7031 C576.0625,68.8594 575.9063,69.1563 575.9063,69.4375 C575.9063,69.7188 576.0469,69.9688 576.2656,70.1406 C576.4219,70.25 576.6094,70.2813 577.0313,70.2813 L578.75,70.2813 L578.75,76.7969 L577.0313,76.7969 C576.5938,76.7969 576.4688,76.8125 576.3125,76.9219 C576.0625,77.0781 575.9063,77.3594 575.9063,77.6563 C575.9063,77.9063 576.0469,78.1719 576.2656,78.3281 C576.4219,78.4531 576.625,78.5 577.0313,78.5 L582.1719,78.5 C582.9219,78.5 583.2813,78.2188 583.2813,77.6563 C583.2813,77.375 583.1719,77.125 582.9375,76.9531 C582.7656,76.8281 582.625,76.7969 582.1719,76.7969 L580.4531,76.7969 L580.4531,70.2813 Z " fill="#000000"/><text fill="#000000" font-family="sans-serif" font-size="14" font-style="italic" lengthAdjust="spacing" textLength="59" x="593.5" y="78.3467">Formula</text><line style="stroke:#181818;stroke-width:0.5;" x1="565.5" x2="654.5" y1="89.5" y2="89.5"/><line style="stroke:#181818;stroke-width:0.5;" x1="565.5" x2="654.5" y1="97.5" y2="97.5"/></g><!--MD5=[5f312b2722c7bebcecf117a2591fb751]
class Fuzzifier--><g id="elem_Fuzzifier"><rect codeLine="10" fill="#F1F1F1" height="64.2969" id="Fuzzifier" rx="2.5" ry="2.5" style="stroke:#181818;stroke-width:0.5;" width="268" x="225" y="182"/><ellipse cx="325.25" cy="198" fill="#B4A7E5" rx="11" ry="11" style="stroke:#181818;stroke-width:1.0;"/><path d="M326.2031,194.7813 L327.9219,194.7813 C328.3125,194.7813 328.5,194.75 328.625,194.6719 C328.8906,194.5156 329.0313,194.2344 329.0313,193.9375 C329.0313,193.6719 328.9219,193.4063 328.6875,193.2344 C328.5156,193.125 328.375,193.0938 327.9219,193.0938 L322.7813,193.0938 C322.3438,193.0938 322.2188,193.1094 322.0625,193.2031 C321.8125,193.3594 321.6563,193.6563 321.6563,193.9375 C321.6563,194.2188 321.7969,194.4688 322.0156,194.6406 C322.1719,194.75 322.3594,194.7813 322.7813,194.7813 L324.5,194.7813 L324.5,201.2969 L322.7813,201.2969 C322.3438,201.2969 322.2188,201.3125 322.0625,201.4219 C321.8125,201.5781 321.6563,201.8594 321.6563,202.1563 C321.6563,202.4063 321.7969,202.6719 322.0156,202.8281 C322.1719,202.9531 322.375,203 322.7813,203 L327.9219,203 C328.6719,203 329.0313,202.7188 329.0313,202.1563 C329.0313,201.875 328.9219,201.625 328.6875,201.4531 C328.5156,201.3281 328.375,201.2969 327.9219,201.2969 L326.2031,201.2969 L326.2031,194.7813 Z " fill="#000000"/><text fill="#000000" font-family="sans-serif" font-size="14" font-style="italic" lengthAdjust="spacing" textLength="59" x="345.75" y="202.8467">Fuzzifier</text><line style="stroke:#181818;stroke-width:0.5;" x1="226" x2="492" y1="214" y2="214"/><line style="stroke:#181818;stroke-width:0.5;" x1="226" x2="492" y1="222" y2="222"/><ellipse cx="236" cy="235.6484" fill="#84BE84" rx="3" ry="3" style="stroke:#038048;stroke-width:1.0;"/><text fill="#000000" font-family="sans-serif" font-size="14" lengthAdjust="spacing" textLength="242" x="245" y="238.9951">visit(formulae: List[Formula]): Any</text></g><!--MD5=[a31ccead2bfbbf7157e31933ed1bc399]
class ConstrainingFuzzifier--><g id="elem_ConstrainingFuzzifier"><rect codeLine="14" fill="#F1F1F1" height="48" id="ConstrainingFuzzifier" rx="2.5" ry="2.5" style="stroke:#181818;stroke-width:0.5;" width="181" x="414.5" y="306"/><ellipse cx="429.5" cy="322" fill="#B4A7E5" rx="11" ry="11" style="stroke:#181818;stroke-width:1.0;"/><path d="M430.4531,318.7813 L432.1719,318.7813 C432.5625,318.7813 432.75,318.75 432.875,318.6719 C433.1406,318.5156 433.2813,318.2344 433.2813,317.9375 C433.2813,317.6719 433.1719,317.4063 432.9375,317.2344 C432.7656,317.125 432.625,317.0938 432.1719,317.0938 L427.0313,317.0938 C426.5938,317.0938 426.4688,317.1094 426.3125,317.2031 C426.0625,317.3594 425.9063,317.6563 425.9063,317.9375 C425.9063,318.2188 426.0469,318.4688 426.2656,318.6406 C426.4219,318.75 426.6094,318.7813 427.0313,318.7813 L428.75,318.7813 L428.75,325.2969 L427.0313,325.2969 C426.5938,325.2969 426.4688,325.3125 426.3125,325.4219 C426.0625,325.5781 425.9063,325.8594 425.9063,326.1563 C425.9063,326.4063 426.0469,326.6719 426.2656,326.8281 C426.4219,326.9531 426.625,327 427.0313,327 L432.1719,327 C432.9219,327 433.2813,326.7188 433.2813,326.1563 C433.2813,325.875 433.1719,325.625 432.9375,325.4531 C432.7656,325.3281 432.625,325.2969 432.1719,325.2969 L430.4531,325.2969 L430.4531,318.7813 Z " fill="#000000"/><text fill="#000000" font-family="sans-serif" font-size="14" font-style="italic" lengthAdjust="spacing" textLength="149" x="443.5" y="326.8467">ConstrainingFuzzifier</text><line style="stroke:#181818;stroke-width:0.5;" x1="415.5" x2="594.5" y1="338" y2="338"/><line style="stroke:#181818;stroke-width:0.5;" x1="415.5" x2="594.5" y1="346" y2="346"/></g><!--MD5=[7d18afa09086434cade1e128d11d5dad]
class StructuringFuzzifier--><g id="elem_StructuringFuzzifier"><rect codeLine="15" fill="#F1F1F1" height="48" id="StructuringFuzzifier" rx="2.5" ry="2.5" style="stroke:#181818;stroke-width:0.5;" width="170" x="171" y="306"/><ellipse cx="186" cy="322" fill="#B4A7E5" rx="11" ry="11" style="stroke:#181818;stroke-width:1.0;"/><path d="M186.9531,318.7813 L188.6719,318.7813 C189.0625,318.7813 189.25,318.75 189.375,318.6719 C189.6406,318.5156 189.7813,318.2344 189.7813,317.9375 C189.7813,317.6719 189.6719,317.4063 189.4375,317.2344 C189.2656,317.125 189.125,317.0938 188.6719,317.0938 L183.5313,317.0938 C183.0938,317.0938 182.9688,317.1094 182.8125,317.2031 C182.5625,317.3594 182.4063,317.6563 182.4063,317.9375 C182.4063,318.2188 182.5469,318.4688 182.7656,318.6406 C182.9219,318.75 183.1094,318.7813 183.5313,318.7813 L185.25,318.7813 L185.25,325.2969 L183.5313,325.2969 C183.0938,325.2969 182.9688,325.3125 182.8125,325.4219 C182.5625,325.5781 182.4063,325.8594 182.4063,326.1563 C182.4063,326.4063 182.5469,326.6719 182.7656,326.8281 C182.9219,326.9531 183.125,327 183.5313,327 L188.6719,327 C189.4219,327 189.7813,326.7188 189.7813,326.1563 C189.7813,325.875 189.6719,325.625 189.4375,325.4531 C189.2656,325.3281 189.125,325.2969 188.6719,325.2969 L186.9531,325.2969 L186.9531,318.7813 Z " fill="#000000"/><text fill="#000000" font-family="sans-serif" font-size="14" font-style="italic" lengthAdjust="spacing" textLength="138" x="200" y="326.8467">StructuringFuzzifier</text><line style="stroke:#181818;stroke-width:0.5;" x1="172" x2="340" y1="338" y2="338"/><line style="stroke:#181818;stroke-width:0.5;" x1="172" x2="340" y1="346" y2="346"/></g><!--MD5=[7ec533010ff2f1deaa63074fa6191f8f]
class LambdaLayer--><g id="elem_LambdaLayer"><rect codeLine="17" fill="#F1F1F1" height="48" id="LambdaLayer" rx="2.5" ry="2.5" style="stroke:#181818;stroke-width:0.5;" width="128" x="528" y="190"/><ellipse cx="543" cy="206" fill="#ADD1B2" rx="11" ry="11" style="stroke:#181818;stroke-width:1.0;"/><path d="M545.3438,201.6719 C544.4063,201.2344 543.8125,201.0938 542.9375,201.0938 C540.3125,201.0938 538.3125,203.1719 538.3125,205.8906 L538.3125,207.0156 C538.3125,209.5938 540.4219,211.4844 543.3125,211.4844 C544.5313,211.4844 545.6875,211.1875 546.4375,210.6406 C547.0156,210.2344 547.3438,209.7813 547.3438,209.3906 C547.3438,208.9375 546.9531,208.5469 546.4844,208.5469 C546.2656,208.5469 546.0625,208.625 545.875,208.8125 C545.4219,209.2969 545.4219,209.2969 545.2344,209.3906 C544.8125,209.6563 544.125,209.7813 543.3594,209.7813 C541.3125,209.7813 540.0156,208.6875 540.0156,206.9844 L540.0156,205.8906 C540.0156,204.1094 541.2656,202.7969 543,202.7969 C543.5781,202.7969 544.1875,202.9531 544.6563,203.2031 C545.1406,203.4844 545.3125,203.7031 545.4063,204.1094 C545.4688,204.5156 545.5,204.6406 545.6406,204.7656 C545.7813,204.9063 546.0156,205.0156 546.2344,205.0156 C546.5,205.0156 546.7656,204.875 546.9375,204.6563 C547.0469,204.5 547.0781,204.3125 547.0781,203.8906 L547.0781,202.4688 C547.0781,202.0313 547.0625,201.9063 546.9688,201.75 C546.8125,201.4844 546.5313,201.3438 546.2344,201.3438 C545.9375,201.3438 545.7344,201.4375 545.5156,201.75 L545.3438,201.6719 Z " fill="#000000"/><text fill="#000000" font-family="sans-serif" font-size="14" lengthAdjust="spacing" textLength="96" x="557" y="210.8467">LambdaLayer</text><line style="stroke:#181818;stroke-width:0.5;" x1="529" x2="655" y1="222" y2="222"/><line style="stroke:#181818;stroke-width:0.5;" x1="529" x2="655" y1="230" y2="230"/></g><!--MD5=[88ade4a7950362060a89f2e9327a93e0]
class NetworkComposer--><g id="elem_NetworkComposer"><rect codeLine="19" fill="#F1F1F1" height="48" id="NetworkComposer" rx="2.5" ry="2.5" style="stroke:#181818;stroke-width:0.5;" width="167" x="22.5" y="190"/><ellipse cx="37.5" cy="206" fill="#ADD1B2" rx="11" ry="11" style="stroke:#181818;stroke-width:1.0;"/><path d="M39.8438,201.6719 C38.9063,201.2344 38.3125,201.0938 37.4375,201.0938 C34.8125,201.0938 32.8125,203.1719 32.8125,205.8906 L32.8125,207.0156 C32.8125,209.5938 34.9219,211.4844 37.8125,211.4844 C39.0313,211.4844 40.1875,211.1875 40.9375,210.6406 C41.5156,210.2344 41.8438,209.7813 41.8438,209.3906 C41.8438,208.9375 41.4531,208.5469 40.9844,208.5469 C40.7656,208.5469 40.5625,208.625 40.375,208.8125 C39.9219,209.2969 39.9219,209.2969 39.7344,209.3906 C39.3125,209.6563 38.625,209.7813 37.8594,209.7813 C35.8125,209.7813 34.5156,208.6875 34.5156,206.9844 L34.5156,205.8906 C34.5156,204.1094 35.7656,202.7969 37.5,202.7969 C38.0781,202.7969 38.6875,202.9531 39.1563,203.2031 C39.6406,203.4844 39.8125,203.7031 39.9063,204.1094 C39.9688,204.5156 40,204.6406 40.1406,204.7656 C40.2813,204.9063 40.5156,205.0156 40.7344,205.0156 C41,205.0156 41.2656,204.875 41.4375,204.6563 C41.5469,204.5 41.5781,204.3125 41.5781,203.8906 L41.5781,202.4688 C41.5781,202.0313 41.5625,201.9063 41.4688,201.75 C41.3125,201.4844 41.0313,201.3438 40.7344,201.3438 C40.4375,201.3438 40.2344,201.4375 40.0156,201.75 L39.8438,201.6719 Z " fill="#000000"/><text fill="#000000" font-family="sans-serif" font-size="14" lengthAdjust="spacing" textLength="135" x="51.5" y="210.8467">NetworkComposer</text><line style="stroke:#181818;stroke-width:0.5;" x1="23.5" x2="188.5" y1="222" y2="222"/><line style="stroke:#181818;stroke-width:0.5;" x1="23.5" x2="188.5" y1="230" y2="230"/></g><!--MD5=[7cf6f81cbd0f8f47cc5ba147851c0165]
class Lukasiewicz--><g id="elem_Lukasiewicz"><rect codeLine="33" fill="#F1F1F1" height="48" id="Lukasiewicz" rx="2.5" ry="2.5" style="stroke:#181818;stroke-width:0.5;" width="116" x="485" y="515"/><ellipse cx="500" cy="531" fill="#ADD1B2" rx="11" ry="11" style="stroke:#181818;stroke-width:1.0;"/><path d="M502.3438,526.6719 C501.4063,526.2344 500.8125,526.0938 499.9375,526.0938 C497.3125,526.0938 495.3125,528.1719 495.3125,530.8906 L495.3125,532.0156 C495.3125,534.5938 497.4219,536.4844 500.3125,536.4844 C501.5313,536.4844 502.6875,536.1875 503.4375,535.6406 C504.0156,535.2344 504.3438,534.7813 504.3438,534.3906 C504.3438,533.9375 503.9531,533.5469 503.4844,533.5469 C503.2656,533.5469 503.0625,533.625 502.875,533.8125 C502.4219,534.2969 502.4219,534.2969 502.2344,534.3906 C501.8125,534.6563 501.125,534.7813 500.3594,534.7813 C498.3125,534.7813 497.0156,533.6875 497.0156,531.9844 L497.0156,530.8906 C497.0156,529.1094 498.2656,527.7969 500,527.7969 C500.5781,527.7969 501.1875,527.9531 501.6563,528.2031 C502.1406,528.4844 502.3125,528.7031 502.4063,529.1094 C502.4688,529.5156 502.5,529.6406 502.6406,529.7656 C502.7813,529.9063 503.0156,530.0156 503.2344,530.0156 C503.5,530.0156 503.7656,529.875 503.9375,529.6563 C504.0469,529.5 504.0781,529.3125 504.0781,528.8906 L504.0781,527.4688 C504.0781,527.0313 504.0625,526.9063 503.9688,526.75 C503.8125,526.4844 503.5313,526.3438 503.2344,526.3438 C502.9375,526.3438 502.7344,526.4375 502.5156,526.75 L502.3438,526.6719 Z " fill="#000000"/><text fill="#000000" font-family="sans-serif" font-size="14" lengthAdjust="spacing" textLength="84" x="514" y="535.8467">Lukasiewicz</text><line style="stroke:#181818;stroke-width:0.5;" x1="486" x2="600" y1="547" y2="547"/><line style="stroke:#181818;stroke-width:0.5;" x1="486" x2="600" y1="555" y2="555"/></g><!--MD5=[e08f40f590dede51c645573d72d05b81]
class Godel--><g id="elem_Godel"><rect codeLine="34" fill="#F1F1F1" height="48" id="Godel" rx="2.5" ry="2.5" style="stroke:#181818;stroke-width:0.5;" width="74" x="376" y="515"/><ellipse cx="391" cy="531" fill="#ADD1B2" rx="11" ry="11" style="stroke:#181818;stroke-width:1.0;"/><path d="M393.3438,526.6719 C392.4063,526.2344 391.8125,526.0938 390.9375,526.0938 C388.3125,526.0938 386.3125,528.1719 386.3125,530.8906 L386.3125,532.0156 C386.3125,534.5938 388.4219,536.4844 391.3125,536.4844 C392.5313,536.4844 393.6875,536.1875 394.4375,535.6406 C395.0156,535.2344 395.3438,534.7813 395.3438,534.3906 C395.3438,533.9375 394.9531,533.5469 394.4844,533.5469 C394.2656,533.5469 394.0625,533.625 393.875,533.8125 C393.4219,534.2969 393.4219,534.2969 393.2344,534.3906 C392.8125,534.6563 392.125,534.7813 391.3594,534.7813 C389.3125,534.7813 388.0156,533.6875 388.0156,531.9844 L388.0156,530.8906 C388.0156,529.1094 389.2656,527.7969 391,527.7969 C391.5781,527.7969 392.1875,527.9531 392.6563,528.2031 C393.1406,528.4844 393.3125,528.7031 393.4063,529.1094 C393.4688,529.5156 393.5,529.6406 393.6406,529.7656 C393.7813,529.9063 394.0156,530.0156 394.2344,530.0156 C394.5,530.0156 394.7656,529.875 394.9375,529.6563 C395.0469,529.5 395.0781,529.3125 395.0781,528.8906 L395.0781,527.4688 C395.0781,527.0313 395.0625,526.9063 394.9688,526.75 C394.8125,526.4844 394.5313,526.3438 394.2344,526.3438 C393.9375,526.3438 393.7344,526.4375 393.5156,526.75 L393.3438,526.6719 Z " fill="#000000"/><text fill="#000000" font-family="sans-serif" font-size="14" lengthAdjust="spacing" textLength="42" x="405" y="535.8467">Godel</text><line style="stroke:#181818;stroke-width:0.5;" x1="377" x2="449" y1="547" y2="547"/><line style="stroke:#181818;stroke-width:0.5;" x1="377" x2="449" y1="555" y2="555"/></g><!--MD5=[7633f14e735becac85dd9b5bbaa36db8]
class SubNetworkBuilder--><g id="elem_SubNetworkBuilder"><rect codeLine="35" fill="#F1F1F1" height="48" id="SubNetworkBuilder" rx="2.5" ry="2.5" style="stroke:#181818;stroke-width:0.5;" width="170" x="171" y="515"/><ellipse cx="186" cy="531" fill="#ADD1B2" rx="11" ry="11" style="stroke:#181818;stroke-width:1.0;"/><path d="M188.3438,526.6719 C187.4063,526.2344 186.8125,526.0938 185.9375,526.0938 C183.3125,526.0938 181.3125,528.1719 181.3125,530.8906 L181.3125,532.0156 C181.3125,534.5938 183.4219,536.4844 186.3125,536.4844 C187.5313,536.4844 188.6875,536.1875 189.4375,535.6406 C190.0156,535.2344 190.3438,534.7813 190.3438,534.3906 C190.3438,533.9375 189.9531,533.5469 189.4844,533.5469 C189.2656,533.5469 189.0625,533.625 188.875,533.8125 C188.4219,534.2969 188.4219,534.2969 188.2344,534.3906 C187.8125,534.6563 187.125,534.7813 186.3594,534.7813 C184.3125,534.7813 183.0156,533.6875 183.0156,531.9844 L183.0156,530.8906 C183.0156,529.1094 184.2656,527.7969 186,527.7969 C186.5781,527.7969 187.1875,527.9531 187.6563,528.2031 C188.1406,528.4844 188.3125,528.7031 188.4063,529.1094 C188.4688,529.5156 188.5,529.6406 188.6406,529.7656 C188.7813,529.9063 189.0156,530.0156 189.2344,530.0156 C189.5,530.0156 189.7656,529.875 189.9375,529.6563 C190.0469,529.5 190.0781,529.3125 190.0781,528.8906 L190.0781,527.4688 C190.0781,527.0313 190.0625,526.9063 189.9688,526.75 C189.8125,526.4844 189.5313,526.3438 189.2344,526.3438 C188.9375,526.3438 188.7344,526.4375 188.5156,526.75 L188.3438,526.6719 Z " fill="#000000"/><text fill="#000000" font-family="sans-serif" font-size="14" lengthAdjust="spacing" textLength="138" x="200" y="535.8467">SubNetworkBuilder</text><line style="stroke:#181818;stroke-width:0.5;" x1="172" x2="340" y1="547" y2="547"/><line style="stroke:#181818;stroke-width:0.5;" x1="172" x2="340" y1="555" y2="555"/></g><!--MD5=[2f073fe683ac4e92887bb6ecd462881e]
class DatalogFormula--><g id="elem_DatalogFormula"><rect codeLine="30" fill="#F1F1F1" height="48" id="DatalogFormula" rx="2.5" ry="2.5" style="stroke:#181818;stroke-width:0.5;" width="145" x="636.5" y="515"/><ellipse cx="651.5" cy="531" fill="#ADD1B2" rx="11" ry="11" style="stroke:#181818;stroke-width:1.0;"/><path d="M653.8438,526.6719 C652.9063,526.2344 652.3125,526.0938 651.4375,526.0938 C648.8125,526.0938 646.8125,528.1719 646.8125,530.8906 L646.8125,532.0156 C646.8125,534.5938 648.9219,536.4844 651.8125,536.4844 C653.0313,536.4844 654.1875,536.1875 654.9375,535.6406 C655.5156,535.2344 655.8438,534.7813 655.8438,534.3906 C655.8438,533.9375 655.4531,533.5469 654.9844,533.5469 C654.7656,533.5469 654.5625,533.625 654.375,533.8125 C653.9219,534.2969 653.9219,534.2969 653.7344,534.3906 C653.3125,534.6563 652.625,534.7813 651.8594,534.7813 C649.8125,534.7813 648.5156,533.6875 648.5156,531.9844 L648.5156,530.8906 C648.5156,529.1094 649.7656,527.7969 651.5,527.7969 C652.0781,527.7969 652.6875,527.9531 653.1563,528.2031 C653.6406,528.4844 653.8125,528.7031 653.9063,529.1094 C653.9688,529.5156 654,529.6406 654.1406,529.7656 C654.2813,529.9063 654.5156,530.0156 654.7344,530.0156 C655,530.0156 655.2656,529.875 655.4375,529.6563 C655.5469,529.5 655.5781,529.3125 655.5781,528.8906 L655.5781,527.4688 C655.5781,527.0313 655.5625,526.9063 655.4688,526.75 C655.3125,526.4844 655.0313,526.3438 654.7344,526.3438 C654.4375,526.3438 654.2344,526.4375 654.0156,526.75 L653.8438,526.6719 Z " fill="#000000"/><text fill="#000000" font-family="sans-serif" font-size="14" lengthAdjust="spacing" textLength="113" x="665.5" y="535.8467">DatalogFormula</text><line style="stroke:#181818;stroke-width:0.5;" x1="637.5" x2="780.5" y1="547" y2="547"/><line style="stroke:#181818;stroke-width:0.5;" x1="637.5" x2="780.5" y1="555" y2="555"/></g><path d="M111,512.5 L119,512.5 A3.75,3.75 0 0 1 121.5,515 L128.5,534.7969 L133,534.7969 A2.5,2.5 0 0 1 135.5,537.2969 L135.5,562.5938 A2.5,2.5 0 0 1 133,565.0938 L111,565.0938 A2.5,2.5 0 0 1 108.5,562.5938 L108.5,515 A2.5,2.5 0 0 1 111,512.5 " fill="#F1F1F1" style="stroke:#181818;stroke-width:0.5;"/><line style="stroke:#181818;stroke-width:0.5;" x1="108.5" x2="128.5" y1="534.7969" y2="534.7969"/><text fill="#000000" font-family="sans-serif" font-size="14" lengthAdjust="spacing" textLength="7" x="112.5" y="527.4951">*</text><!--MD5=[c917907ed7809c7fcbd1bb695843ffd7]
link Injector to Formula--><g id="link_Injector_Formula"><path codeLine="21" d="M529.844,81.5 C541.324,81.5 552.805,81.5 564.286,81.5 " fill="none" id="Injector-Formula" style="stroke:#181818;stroke-width:1.0;"/><text fill="#000000" font-family="sans-serif" font-size="13" lengthAdjust="spacing" textLength="7" x="549.4425" y="77.3822">*</text></g><!--MD5=[cef03f37515e9ab046632ef5fc791777]
reverse link Injector to NetworkComposer--><g id="link_Injector_NetworkComposer"><path codeLine="38" d="M272.006,130.94 C231.171,151.126 185.678,173.614 152.657,189.937 " fill="none" id="Injector-backto-NetworkComposer" style="stroke:#181818;stroke-width:1.0;"/><polygon fill="none" points="269.044,124.596,290.075,122.008,275.248,137.146,269.044,124.596" style="stroke:#181818;stroke-width:1.0;"/></g><!--MD5=[9d386cd530bc21c8699d6bf6e5a3b659]
reverse link Fuzzifier to ConstrainingFuzzifier--><g id="link_Fuzzifier_ConstrainingFuzzifier"><path codeLine="39" d="M414.859,258.616 C435.448,274.692 457.966,292.275 475.345,305.845 " fill="none" id="Fuzzifier-backto-ConstrainingFuzzifier" style="stroke:#181818;stroke-width:1.0;"/><polygon fill="none" points="410.351,263.977,398.895,246.151,418.967,252.942,410.351,263.977" style="stroke:#181818;stroke-width:1.0;"/></g><!--MD5=[52bf50529554732cf6f385163335760b]
reverse link Fuzzifier to StructuringFuzzifier--><g id="link_Fuzzifier_StructuringFuzzifier"><path codeLine="40" d="M317.426,261.014 C303.503,276.423 288.575,292.946 276.921,305.845 " fill="none" id="Fuzzifier-backto-StructuringFuzzifier" style="stroke:#181818;stroke-width:1.0;"/><polygon fill="none" points="312.253,256.298,330.855,246.151,322.641,265.684,312.253,256.298" style="stroke:#181818;stroke-width:1.0;"/></g><!--MD5=[067a1094b3f1624a0c95b78059a6ae99]
reverse link ConstrainingFuzzifier to Lukasiewicz--><g id="link_ConstrainingFuzzifier_Lukasiewicz"><path codeLine="41" d="M512.937,374.234 C520.784,416.979 532.494,480.769 538.73,514.742 " fill="none" id="ConstrainingFuzzifier-backto-Lukasiewicz" style="stroke:#181818;stroke-width:1.0;"/><polygon fill="none" points="506.012,375.278,509.285,354.343,519.781,372.751,506.012,375.278" style="stroke:#181818;stroke-width:1.0;"/></g><!--MD5=[24ca785f9dcdd9801f21885b39faada5]
reverse link ConstrainingFuzzifier to Godel--><g id="link_ConstrainingFuzzifier_Godel"><path codeLine="42" d="M475.698,370.839 C472.565,375.827 469.583,380.952 467,386 C444.739,429.503 427.736,484.324 419.166,514.82 " fill="none" id="ConstrainingFuzzifier-backto-Godel" style="stroke:#181818;stroke-width:1.0;"/><polygon fill="none" points="469.92,366.887,486.922,354.24,481.518,374.729,469.92,366.887" style="stroke:#181818;stroke-width:1.0;"/></g><!--MD5=[8657b1feae6e42ca738127c68033222a]
reverse link StructuringFuzzifier to SubNetworkBuilder--><g id="link_StructuringFuzzifier_SubNetworkBuilder"><path codeLine="43" d="M256,374.528 C256,417.271 256,480.847 256,514.742 " fill="none" id="StructuringFuzzifier-backto-SubNetworkBuilder" style="stroke:#181818;stroke-width:1.0;"/><polygon fill="none" points="249,374.343,256,354.343,263,374.343,249,374.343" style="stroke:#181818;stroke-width:1.0;"/></g><!--MD5=[9d8dae5e2ed25868d7029b1b8026f243]
reverse link Formula to DatalogFormula--><g id="link_Formula_DatalogFormula"><path codeLine="44" d="M641.57,122.008 C653.792,139.416 666.598,160.724 674,182 C715.628,301.657 713.137,456.674 710.407,514.713 " fill="none" id="Formula-backto-DatalogFormula" style="stroke:#181818;stroke-width:1.0;"/><polygon fill="none" points="635.805,125.985,629.532,105.745,647.058,117.655,635.805,125.985" style="stroke:#181818;stroke-width:1.0;"/></g><!--MD5=[f5cb00e6fa4affd0b9a7c73b31a45966]
reverse link Injector to LambdaLayer--><g id="link_Injector_LambdaLayer"><path codeLine="45" d="M454.492,132.168 C488.285,152.033 525.56,173.944 552.766,189.937 " fill="none" id="Injector-backto-LambdaLayer" style="stroke:#181818;stroke-width:1.0;"/><polygon fill="none" points="450.904,138.178,437.21,122.008,457.999,126.109,450.904,138.178" style="stroke:#181818;stroke-width:1.0;"/></g><!--MD5=[9690e34d15162d2c37691038067c33c6]
reverse link LambdaLayer to ConstrainingFuzzifier--><g id="link_LambdaLayer_ConstrainingFuzzifier"><path codeLine="46" d="M566.495,248.421 C552.378,266.919 535.191,289.439 522.58,305.965 " fill="none" id="LambdaLayer-backto-ConstrainingFuzzifier" style="stroke:#181818;stroke-width:1.0;"/><polygon fill="#181818" points="574.394,238.07,567.5743,240.4134,567.1145,247.6099,573.9342,245.2664,574.394,238.07" style="stroke:#181818;stroke-width:1.0;"/><text fill="#000000" font-family="sans-serif" font-size="13" lengthAdjust="spacing" textLength="8" x="518.0599" y="294.9681">1</text></g><!--MD5=[f3cc9d4738ab9b6f8870b4c4b1b1d22f]
reverse link NetworkComposer to StructuringFuzzifier--><g id="link_NetworkComposer_StructuringFuzzifier"><path codeLine="47" d="M146.933,246.109 C171.808,265.014 203.032,288.744 225.69,305.965 " fill="none" id="NetworkComposer-backto-StructuringFuzzifier" style="stroke:#181818;stroke-width:1.0;"/><polygon fill="#181818" points="136.355,238.07,138.7118,244.8851,145.9091,245.3308,143.5523,238.5157,136.355,238.07" style="stroke:#181818;stroke-width:1.0;"/><text fill="#000000" font-family="sans-serif" font-size="13" lengthAdjust="spacing" textLength="8" x="208.8981" y="294.9681">1</text></g><!--MD5=[921387f6b178a5377199e3b9149af832]
@startuml
package ski {

  interface Injector{
    + predictor: Predictor
    + inject(formulae: List[Formula]): Predictor
  }

  interface Formula{}

  interface Fuzzifier{
    + visit(formulae: List[Formula]): Any
  }

  interface ConstrainingFuzzifier{}
  interface StructuringFuzzifier{}

  class LambdaLayer{}

  class NetworkComposer{}

  Injector - "*" Formula

}

package logic {

  package datalog {

    package grammar{
      class DatalogFormula{}
    }

    class Lukasiewicz{}
    class Godel{}
    class SubNetworkBuilder{}

    
    Injector <|- - NetworkComposer
    Fuzzifier <|- - ConstrainingFuzzifier
    Fuzzifier <|- - StructuringFuzzifier
    ConstrainingFuzzifier <|- - Lukasiewicz
    ConstrainingFuzzifier <|- - Godel
    StructuringFuzzifier <|- - SubNetworkBuilder
    Formula <|- - DatalogFormula
    Injector <|- - LambdaLayer
    LambdaLayer *- - "1" ConstrainingFuzzifier
    NetworkComposer *- - "1" StructuringFuzzifier

  }

  package * {}
}
@enduml

PlantUML version 1.2022.13beta7(Unknown compile time)
(GPL source distribution)
Java Runtime: Java(TM) SE Runtime Environment
JVM: Java HotSpot(TM) 64-Bit Server VM
Default Encoding: UTF-8
Language: en
Country: US
--></g></svg>